<svg width="521" height="116" viewBox="0 0 521 116" fill="none" xmlns="http://www.w3.org/2000/svg">
<path d="M0.5 112C18.6667 114.5 58.5 116.7 72.5 105.5C90 91.5 99.5 56.0001 125.5 58.5001C151.5 61.0001 169 98.0001 193.5 96.5001C218 95.0001 235.856 91.1274 245.5 67.5001C255.5 42.9998 250.5 51.4998 252 28.5002C254.108 -3.81946 281.359 -1.9832 290 10.4998C294.5 17.0004 294.5 30.0004 305.5 31.5004C316.5 33.0004 393.5 45.4998 397.5 54.4998C401.5 63.4998 404 64.0003 414.5 63.0003C425 62.0003 419.5 63.0003 432.5 63.0003C442.362 63.0003 441 67.5001 452.5 67.5001C464 67.5001 489.5 41.0002 498 67.5001C504.8 88.7001 519 86.5002 519 85.5002" stroke="url(#paint0_linear_2098_3059)" stroke-width="3"/>
<defs>
<linearGradient id="paint0_linear_2098_3059" x1="66.5934" y1="108.01" x2="519.287" y2="89.6221" gradientUnits="userSpaceOnUse">
<stop stop-color="#EF4444" stop-opacity="0.45"/>
<stop offset="0.127791" stop-color="#EF4444"/>
<stop offset="0.802083" stop-color="#EF4444"/>
<stop offset="1" stop-color="#EF4444" stop-opacity="0.43"/>
</linearGradient>
</defs>
</svg>
