<svg width="272" height="852" viewBox="0 0 272 852" fill="none" xmlns="http://www.w3.org/2000/svg">
<g clip-path="url(#clip0_1_1322)">
<mask id="path-1-inside-1_1_1322" fill="white">
<path d="M0 16H272V72H0V16Z"/>
</mask>
<path d="M0 16H272V72H0V16Z" fill="#F0F7EB" fill-opacity="0.5"/>
<path d="M40.3677 41.2596C40.2906 41.4859 40.2329 41.7218 40.1317 41.9289C39.7225 42.7426 39.0532 43.2 38.148 43.2193C36.5543 43.2482 34.9605 43.2433 33.3716 43.2241C32.1679 43.2096 31.1712 42.2081 31.1567 41.0092C31.1375 39.4155 31.1375 37.8217 31.1567 36.228C31.1712 35.0291 32.1727 34.0276 33.3716 34.0131C34.9653 33.9939 36.5591 33.9987 38.148 34.0131C39.1976 34.0228 40.0836 34.7835 40.3195 35.8235C40.3292 35.8765 40.3532 35.9247 40.3725 35.9776C40.3677 37.7351 40.3677 39.4973 40.3677 41.2596Z" fill="#11453B"/>
<path d="M22.3551 53.9902C22.2251 53.9517 22.0999 53.918 21.9699 53.8747C21.0647 53.5809 20.4003 52.7239 20.3906 51.7657C20.3762 50.172 20.3714 48.5782 20.3906 46.9845C20.4051 45.7856 21.4066 44.7841 22.6055 44.7696C24.1992 44.7504 25.793 44.7504 27.3819 44.7696C28.5856 44.7841 29.5823 45.7808 29.5968 46.9845C29.616 48.5782 29.616 50.172 29.5968 51.7657C29.5871 52.8154 28.8168 53.7158 27.7864 53.9373C27.7334 53.9469 27.6852 53.971 27.6323 53.9854C25.8748 53.9902 24.1174 53.9902 22.3551 53.9902Z" fill="#11453B"/>
<path d="M35.2783 53.9905C34.792 53.8461 34.2816 53.7546 33.8194 53.5523C31.9512 52.7194 30.9112 50.7501 31.2 48.6748C31.4697 46.744 33.0779 45.1262 35.0279 44.8229C37.5991 44.4232 39.9825 46.1951 40.3243 48.7663C40.3291 48.8096 40.3532 48.853 40.3677 48.9011C40.3677 49.2237 40.3677 49.5415 40.3677 49.8641C40.3532 49.9074 40.334 49.9508 40.3243 49.9989C40.0017 51.9201 38.9136 53.1864 37.0694 53.8027C36.7998 53.8942 36.5157 53.9327 36.2365 54.0001C35.9187 53.9905 35.5961 53.9905 35.2783 53.9905Z" fill="#11453B"/>
<path d="M29.6064 38.6404C29.6064 39.3771 29.6112 40.1138 29.6064 40.8504C29.6016 42.2371 28.6145 43.2242 27.2278 43.229C25.74 43.2338 24.2522 43.2338 22.7596 43.229C21.3825 43.2242 20.3906 42.2323 20.3858 40.8504C20.381 39.3626 20.381 37.87 20.3858 36.3822C20.3906 34.9955 21.3825 34.0036 22.7644 34.0036C24.2522 33.9988 25.74 33.9988 27.2326 34.0036C28.6145 34.0084 29.6064 34.9955 29.6112 36.3822C29.6112 37.1333 29.6064 37.8844 29.6064 38.6404Z" fill="#11453B"/>
<path d="M53.3966 38.8H56.9646C58.1006 38.8 59.0926 39.04 59.9566 39.504C60.8046 39.984 61.4606 40.64 61.9246 41.472C62.3726 42.32 62.6126 43.296 62.6126 44.4C62.6126 45.504 62.3726 46.48 61.9246 47.328C61.4606 48.176 60.8046 48.832 59.9566 49.296C59.0926 49.776 58.1006 50 56.9646 50H53.3966V38.8ZM56.9646 48.4C58.1646 48.4 59.0926 48.048 59.7486 47.328C60.3886 46.608 60.7246 45.632 60.7246 44.4C60.7246 43.184 60.3886 42.208 59.7486 41.488C59.0926 40.768 58.1646 40.4 56.9646 40.4H55.2366V48.4H56.9646ZM71.8887 48.496V50H70.9767C70.4327 50 70.0487 49.888 69.8247 49.664C69.5847 49.44 69.4727 49.12 69.4727 48.688C68.8487 49.632 67.9527 50.096 66.7687 50.096C65.8407 50.096 65.1047 49.888 64.5607 49.456C64.0007 49.04 63.7287 48.448 63.7287 47.696C63.7287 46.864 64.0167 46.208 64.6247 45.76C65.2167 45.312 66.0807 45.072 67.2327 45.072H69.2967V44.576C69.2967 44.128 69.1367 43.76 68.8167 43.504C68.4967 43.248 68.0487 43.104 67.4887 43.104C66.9767 43.104 66.5607 43.216 66.2407 43.44C65.9207 43.664 65.7287 43.952 65.6647 44.304H63.9687C64.0487 43.488 64.4167 42.848 65.0567 42.4C65.6967 41.952 66.5287 41.712 67.5687 41.712C68.6567 41.712 69.5047 41.968 70.1127 42.48C70.7047 42.992 71.0087 43.728 71.0087 44.688V47.92C71.0087 48.304 71.1847 48.496 71.5527 48.496H71.8887ZM69.2967 46.352H67.1527C66.6087 46.352 66.2087 46.464 65.9207 46.672C65.6327 46.88 65.4887 47.184 65.4887 47.584C65.4887 47.936 65.6167 48.224 65.8887 48.432C66.1607 48.656 66.5287 48.752 67.0087 48.752C67.7127 48.752 68.2727 48.56 68.6727 48.176C69.0727 47.792 69.2807 47.28 69.2967 46.64V46.352ZM74.2059 47.296C74.2379 47.728 74.4299 48.08 74.7979 48.352C75.1659 48.624 75.6459 48.752 76.2379 48.752C76.7499 48.752 77.1819 48.656 77.5019 48.464C77.8219 48.272 77.9979 48 77.9979 47.664C77.9979 47.392 77.9179 47.184 77.7739 47.04C77.6139 46.912 77.4219 46.816 77.1659 46.752C76.9099 46.688 76.5259 46.624 76.0139 46.56C75.2939 46.48 74.7019 46.368 74.2379 46.224C73.7739 46.08 73.4059 45.856 73.1179 45.536C72.8299 45.216 72.7019 44.8 72.7019 44.256C72.7019 43.76 72.8299 43.312 73.1179 42.928C73.4059 42.544 73.7899 42.24 74.2859 42.016C74.7819 41.808 75.3419 41.696 75.9819 41.696C77.0059 41.696 77.8539 41.936 78.4939 42.384C79.1339 42.848 79.4859 43.488 79.5499 44.32H77.8699C77.8219 43.952 77.6299 43.648 77.3099 43.408C76.9739 43.168 76.5579 43.04 76.0619 43.04C75.5499 43.04 75.1499 43.136 74.8459 43.328C74.5259 43.52 74.3819 43.792 74.3819 44.112C74.3819 44.368 74.4459 44.544 74.6059 44.672C74.7659 44.8 74.9579 44.88 75.1979 44.928C75.4219 44.976 75.8059 45.024 76.3339 45.088C77.0379 45.168 77.6299 45.28 78.1099 45.44C78.5899 45.6 78.9739 45.84 79.2619 46.176C79.5499 46.512 79.6939 46.96 79.6939 47.536C79.6939 48.048 79.5339 48.512 79.2459 48.896C78.9419 49.28 78.5259 49.584 78.0139 49.792C77.4859 50 76.8939 50.096 76.2539 50.096C75.1499 50.096 74.2539 49.856 73.5819 49.36C72.9099 48.864 72.5579 48.176 72.5419 47.296H74.2059ZM87.7836 42.608C88.3916 43.216 88.7116 44.176 88.7116 45.488V50H86.9836V45.584C86.9836 44.816 86.8076 44.224 86.4716 43.808C86.1356 43.408 85.6556 43.2 85.0156 43.2C84.3276 43.2 83.7836 43.44 83.3996 43.92C83.0156 44.4 82.8236 45.04 82.8236 45.856V50H81.0956V38.8H82.8236V42.992C83.4316 42.144 84.2956 41.712 85.3996 41.712C86.3756 41.712 87.1756 42.016 87.7836 42.608ZM96.6671 42.224C97.2431 42.56 97.7071 43.04 98.0431 43.664C98.3631 44.304 98.5391 45.04 98.5391 45.904C98.5391 46.736 98.3631 47.456 98.0431 48.096C97.7071 48.736 97.2431 49.216 96.6671 49.568C96.0751 49.92 95.4031 50.096 94.6671 50.096C94.0591 50.096 93.5311 49.984 93.0831 49.76C92.6351 49.536 92.2671 49.216 91.9951 48.816L91.7871 50H90.2831V38.8H92.0111V43.024C92.6511 42.16 93.5471 41.712 94.6671 41.712C95.4031 41.712 96.0751 41.888 96.6671 42.224ZM96.1071 47.888C96.5551 47.376 96.7791 46.72 96.7791 45.904C96.7791 45.104 96.5551 44.464 96.1071 43.952C95.6591 43.44 95.0831 43.184 94.3791 43.184C93.6591 43.184 93.0831 43.44 92.6511 43.936C92.2031 44.448 91.9951 45.088 91.9951 45.888C91.9951 46.704 92.2031 47.36 92.6511 47.872C93.0831 48.384 93.6591 48.64 94.3791 48.64C95.0831 48.64 95.6591 48.4 96.1071 47.888ZM101.604 49.584C100.964 49.232 100.484 48.752 100.132 48.112C99.7797 47.472 99.6197 46.736 99.6197 45.904C99.6197 45.088 99.7797 44.368 100.132 43.728C100.484 43.088 100.964 42.592 101.604 42.24C102.244 41.888 102.964 41.712 103.796 41.712C104.612 41.712 105.332 41.888 105.972 42.24C106.612 42.592 107.092 43.088 107.444 43.728C107.796 44.368 107.972 45.088 107.972 45.904C107.972 46.736 107.796 47.472 107.444 48.112C107.092 48.752 106.612 49.232 105.972 49.584C105.332 49.936 104.612 50.096 103.796 50.096C102.964 50.096 102.244 49.936 101.604 49.584ZM105.54 47.872C105.988 47.36 106.212 46.704 106.212 45.904C106.212 45.104 105.988 44.464 105.54 43.952C105.092 43.44 104.516 43.184 103.796 43.184C103.06 43.184 102.484 43.44 102.052 43.952C101.604 44.464 101.396 45.104 101.396 45.904C101.396 46.704 101.604 47.36 102.052 47.872C102.484 48.384 103.06 48.624 103.796 48.624C104.516 48.624 105.092 48.384 105.54 47.872ZM117.201 48.496V50H116.289C115.745 50 115.361 49.888 115.137 49.664C114.897 49.44 114.785 49.12 114.785 48.688C114.161 49.632 113.265 50.096 112.081 50.096C111.153 50.096 110.417 49.888 109.873 49.456C109.313 49.04 109.041 48.448 109.041 47.696C109.041 46.864 109.329 46.208 109.937 45.76C110.529 45.312 111.393 45.072 112.545 45.072H114.609V44.576C114.609 44.128 114.449 43.76 114.129 43.504C113.809 43.248 113.361 43.104 112.801 43.104C112.289 43.104 111.873 43.216 111.553 43.44C111.233 43.664 111.041 43.952 110.977 44.304H109.281C109.361 43.488 109.729 42.848 110.369 42.4C111.009 41.952 111.841 41.712 112.881 41.712C113.969 41.712 114.817 41.968 115.425 42.48C116.017 42.992 116.321 43.728 116.321 44.688V47.92C116.321 48.304 116.497 48.496 116.865 48.496H117.201ZM114.609 46.352H112.465C111.921 46.352 111.521 46.464 111.233 46.672C110.945 46.88 110.801 47.184 110.801 47.584C110.801 47.936 110.929 48.224 111.201 48.432C111.473 48.656 111.841 48.752 112.321 48.752C113.025 48.752 113.585 48.56 113.985 48.176C114.385 47.792 114.593 47.28 114.609 46.64V46.352ZM122.67 41.808V43.424H121.902C121.182 43.424 120.67 43.664 120.35 44.128C120.03 44.592 119.87 45.184 119.87 45.888V50H118.142V41.808H119.678L119.87 43.04C120.094 42.656 120.398 42.368 120.782 42.144C121.15 41.92 121.646 41.808 122.286 41.808H122.67ZM131.329 38.8V50H129.825L129.617 48.768C128.961 49.664 128.065 50.096 126.945 50.096C126.193 50.096 125.521 49.936 124.945 49.6C124.353 49.264 123.889 48.784 123.569 48.144C123.233 47.504 123.073 46.768 123.073 45.904C123.073 45.072 123.233 44.352 123.569 43.712C123.905 43.072 124.369 42.592 124.961 42.24C125.537 41.888 126.209 41.712 126.945 41.712C127.537 41.712 128.065 41.824 128.513 42.048C128.961 42.272 129.313 42.56 129.601 42.944V38.8H131.329ZM128.961 47.888C129.393 47.392 129.617 46.736 129.617 45.936C129.617 45.12 129.393 44.464 128.961 43.952C128.513 43.44 127.937 43.184 127.233 43.184C126.513 43.184 125.937 43.44 125.505 43.952C125.057 44.464 124.849 45.104 124.849 45.904C124.849 46.72 125.057 47.376 125.505 47.888C125.937 48.4 126.513 48.64 127.233 48.64C127.937 48.64 128.513 48.4 128.961 47.888Z" fill="#11453B"/>
<path d="M0 16H2C3.10457 16 4 16.8954 4 18V70C4 71.1046 3.10457 72 2 72H0V16Z" fill="#11453B"/>
<path d="M272 71.2H0V72.8H272V71.2Z" fill="#E7E8E7" mask="url(#path-1-inside-1_1_1322)"/>
<mask id="path-9-inside-2_1_1322" fill="white">
<path d="M0 72H272V128H0V72Z"/>
</mask>
<path d="M0 72H272V128H0V72Z" fill="white"/>
<path d="M30.023 90C30.1521 90 30.2851 90 30.4142 90C31.0872 90.1448 31.4511 90.587 31.6311 91.2249C31.7133 91.5185 31.8424 91.7963 31.9363 92.0898C31.9793 92.2229 32.042 92.2659 32.1867 92.2659C33.3449 92.2581 34.5031 92.262 35.6613 92.262C36.569 92.262 37.1325 92.8295 37.1325 93.7374C37.1325 94.1797 37.1325 94.618 37.1325 95.0602C37.1677 95.0681 37.1834 95.0759 37.2029 95.0798C38.4198 95.2207 39.2024 96.0934 39.2024 97.3144C39.2024 97.9993 39.2024 98.6803 39.2024 99.3651C39.2024 99.4356 39.2024 99.5021 39.2024 99.5647C39.2454 99.5804 39.261 99.5921 39.2806 99.596C39.9888 99.7839 40.3723 100.281 40.3762 101.013C40.3762 102.022 40.3801 103.028 40.3762 104.038C40.3723 104.699 39.9575 105.224 39.3197 105.388C39.2845 105.396 39.2493 105.412 39.218 105.419C39.2102 105.443 39.2063 105.459 39.2063 105.47C39.2063 106.233 39.2102 106.993 39.2024 107.756C39.2024 107.948 39.1867 108.147 39.1437 108.335C38.9089 109.329 38.0637 109.994 37.0308 109.998C32.2024 110.002 27.374 109.998 22.5495 109.998C22.5182 109.998 22.483 109.998 22.4517 109.994C21.6848 109.943 21.0783 109.603 20.691 108.938C20.5423 108.687 20.4797 108.394 20.3779 108.124C20.3779 104.402 20.3779 100.676 20.3779 96.9544C20.3897 96.9192 20.4053 96.8839 20.4131 96.8448C20.6049 95.9525 21.1409 95.389 22.0174 95.1385C22.1348 95.1072 22.2561 95.0915 22.3852 95.0641C22.303 94.8411 22.2287 94.6336 22.1543 94.4262C21.8452 93.577 22.1856 92.8452 23.0347 92.536C25.3628 91.6907 27.6948 90.8453 30.023 90ZM38.0285 99.5647C38.0285 98.782 38.0285 98.0267 38.0285 97.2714C38.0285 96.657 37.6177 96.246 36.9955 96.246C32.1906 96.246 27.3896 96.246 22.5847 96.246C21.9548 96.246 21.5518 96.653 21.5518 97.2831C21.5518 100.778 21.5518 104.273 21.5518 107.771C21.5518 108.413 21.9587 108.824 22.6004 108.824C27.3975 108.824 32.1946 108.824 36.9916 108.824C37.6177 108.824 38.0324 108.413 38.0324 107.787C38.0324 107.059 38.0324 106.327 38.0324 105.599C38.0324 105.545 38.0246 105.49 38.0207 105.427C37.4299 105.427 36.8547 105.431 36.2834 105.427C36.0291 105.427 35.7748 105.427 35.5243 105.396C34.1392 105.228 33.0671 104.097 32.9615 102.715C32.8597 101.326 33.7479 100.054 35.0978 99.6821C35.3756 99.6078 35.673 99.5804 35.9626 99.5726C36.6395 99.5569 37.3242 99.5647 38.0285 99.5647ZM29.1269 95.0759C29.1269 94.571 29.123 94.0897 29.1269 93.6083C29.1348 92.9665 29.5769 92.4303 30.2029 92.2973C30.3712 92.262 30.5512 92.262 30.7507 92.2425C30.6294 91.9176 30.5238 91.5928 30.3868 91.2797C30.3634 91.2289 30.2186 91.1897 30.1442 91.2054C29.9877 91.2367 29.8391 91.3071 29.6865 91.3658C27.6048 92.1211 25.5232 92.8804 23.4416 93.6357C23.1991 93.7257 23.1717 93.7844 23.2617 94.031C23.3634 94.3127 23.4769 94.5906 23.5669 94.8724C23.6138 95.025 23.6881 95.0798 23.8525 95.0798C25.5389 95.072 27.2214 95.0759 28.9078 95.0759C28.9665 95.0759 29.033 95.0759 29.1269 95.0759ZM37.3673 100.739C36.8782 100.739 36.393 100.735 35.9039 100.739C34.9061 100.751 34.1314 101.514 34.1275 102.484C34.1236 103.463 34.9022 104.245 35.9039 104.253C36.9055 104.261 37.9072 104.257 38.9089 104.253C39.1398 104.253 39.2024 104.194 39.2024 103.967C39.2024 102.985 39.2024 102.003 39.2024 101.021C39.2024 100.79 39.1476 100.739 38.9089 100.739C38.3924 100.739 37.8798 100.739 37.3673 100.739ZM35.9587 95.072C35.9587 94.5749 35.9626 94.0975 35.9547 93.6161C35.9508 93.4713 35.8374 93.4322 35.7043 93.4322C33.9866 93.4322 32.2728 93.4322 30.5551 93.4322C30.3751 93.4322 30.2929 93.5105 30.2968 93.6905C30.3008 94.0075 30.2968 94.3284 30.2968 94.6454C30.2968 94.7863 30.2968 94.9233 30.2968 95.0681C32.1946 95.072 34.061 95.072 35.9587 95.072Z" fill="#515251" stroke="#515251" stroke-width="0.4"/>
<path d="M35.8831 102.583C35.8699 102.582 35.8492 102.576 35.8287 102.555C35.8066 102.532 35.8005 102.51 35.8005 102.496C35.8005 102.477 35.8082 102.456 35.8268 102.438C35.8455 102.42 35.8673 102.412 35.8874 102.413L35.8994 101.913C36.2165 101.921 36.4749 102.187 36.471 102.508M35.8831 102.583L35.8871 102.413C35.9068 102.413 35.9279 102.422 35.9455 102.44C35.962 102.457 35.9703 102.477 35.971 102.498M35.8831 102.583C35.8985 102.583 35.9203 102.575 35.9412 102.555C35.9622 102.534 35.9698 102.513 35.971 102.498M35.8831 102.583L35.971 102.498M36.471 102.508L35.9711 102.495C35.9711 102.496 35.971 102.497 35.971 102.498M36.471 102.508L35.971 102.502C35.971 102.501 35.971 102.5 35.971 102.498M36.471 102.508L35.971 102.498" fill="#515251" stroke="#515251"/>
<path d="M52.6819 94.8L54.6019 94.784L56.9859 103.664L59.4819 94.8H61.2259L63.6419 103.664L66.0579 94.8H67.9299L64.7299 106H62.5699L60.2819 97.76L58.0419 106H55.8819L52.6819 94.8ZM76.0816 104.496V106H75.1696C74.6256 106 74.2416 105.888 74.0176 105.664C73.7776 105.44 73.6656 105.12 73.6656 104.688C73.0416 105.632 72.1456 106.096 70.9616 106.096C70.0336 106.096 69.2976 105.888 68.7536 105.456C68.1936 105.04 67.9216 104.448 67.9216 103.696C67.9216 102.864 68.2096 102.208 68.8176 101.76C69.4096 101.312 70.2736 101.072 71.4256 101.072H73.4896V100.576C73.4896 100.128 73.3296 99.76 73.0096 99.504C72.6896 99.248 72.2416 99.104 71.6816 99.104C71.1696 99.104 70.7536 99.216 70.4336 99.44C70.1136 99.664 69.9216 99.952 69.8576 100.304H68.1616C68.2416 99.488 68.6096 98.848 69.2496 98.4C69.8896 97.952 70.7216 97.712 71.7616 97.712C72.8496 97.712 73.6976 97.968 74.3056 98.48C74.8976 98.992 75.2016 99.728 75.2016 100.688V103.92C75.2016 104.304 75.3776 104.496 75.7456 104.496H76.0816ZM73.4896 102.352H71.3456C70.8016 102.352 70.4016 102.464 70.1136 102.672C69.8256 102.88 69.6816 103.184 69.6816 103.584C69.6816 103.936 69.8096 104.224 70.0816 104.432C70.3536 104.656 70.7216 104.752 71.2016 104.752C71.9056 104.752 72.4656 104.56 72.8656 104.176C73.2656 103.792 73.4736 103.28 73.4896 102.64V102.352ZM77.0228 94.8H78.7508V106H77.0228V94.8ZM80.4447 94.8H82.1727V106H80.4447V94.8ZM84.0586 99.712C84.3946 99.072 84.8586 98.592 85.4666 98.24C86.0746 97.888 86.7626 97.712 87.5466 97.712C88.3306 97.712 89.0186 97.872 89.6266 98.192C90.2346 98.512 90.6986 98.976 91.0506 99.552C91.4026 100.144 91.5786 100.832 91.5946 101.616C91.5946 101.84 91.5786 102.048 91.5466 102.272H85.3706V102.368C85.4026 103.088 85.6266 103.648 86.0426 104.064C86.4426 104.48 86.9866 104.688 87.6586 104.688C88.1866 104.688 88.6346 104.576 89.0026 104.32C89.3546 104.064 89.5946 103.712 89.7226 103.248H91.4506C91.2906 104.08 90.8906 104.768 90.2346 105.296C89.5786 105.84 88.7626 106.096 87.7866 106.096C86.9226 106.096 86.1866 105.936 85.5466 105.584C84.9066 105.232 84.4266 104.752 84.0746 104.112C83.7226 103.488 83.5626 102.752 83.5626 101.92C83.5626 101.088 83.7226 100.352 84.0586 99.712ZM89.8346 101.008C89.7546 100.416 89.5146 99.952 89.1146 99.616C88.7146 99.28 88.2186 99.104 87.6106 99.104C87.0346 99.104 86.5546 99.28 86.1386 99.632C85.7226 99.984 85.4986 100.432 85.4346 101.008H89.8346ZM93.4571 99.328H92.0331V97.808H93.4571V95.52H95.2011V97.808H97.1691V99.328H95.2011V103.6C95.2011 103.92 95.2651 104.16 95.3931 104.288C95.5211 104.416 95.7291 104.48 96.0491 104.48H97.3611V106H95.6971C94.9131 106 94.3371 105.824 93.9851 105.456C93.6331 105.104 93.4571 104.544 93.4571 103.776V99.328Z" fill="#515251"/>
<path d="M272 127.2H0V128.8H272V127.2Z" fill="#E7E8E7" mask="url(#path-9-inside-2_1_1322)"/>
<mask id="path-14-inside-3_1_1322" fill="white">
<path d="M0 128H272V184H0V128Z"/>
</mask>
<path d="M0 128H272V184H0V128Z" fill="white"/>
<path d="M35.3779 152.25V154.75M35.3779 154.75V157.25M35.3779 154.75H37.8779M35.3779 154.75H32.8779M31.0029 151.312C31.0029 152.866 29.7437 154.125 28.1904 154.125C26.6371 154.125 25.3779 152.866 25.3779 151.312C25.3779 149.759 26.6371 148.5 28.1904 148.5C29.7437 148.5 31.0029 149.759 31.0029 151.312ZM22.8787 162.029C22.8782 161.998 22.8779 161.968 22.8779 161.938C22.8779 159.003 25.2564 156.625 28.1904 156.625C31.1244 156.625 33.5029 159.003 33.5029 161.938V161.94C33.5029 161.969 33.5027 161.999 33.5022 162.029C31.9507 162.963 30.1333 163.5 28.1904 163.5C26.2475 163.5 24.4301 162.963 22.8787 162.029Z" stroke="#515251" stroke-width="1.6" stroke-linecap="round" stroke-linejoin="round"/>
<path d="M53.4019 150.8H60.7139V152.432H55.2419V155.536H59.7539V157.12H55.2419V160.368H60.9059V162H53.4019V150.8ZM73.8896 154.592C74.4496 155.168 74.7376 156.096 74.7376 157.376V162H73.0096V157.392C73.0096 156.688 72.8656 156.144 72.5776 155.76C72.2896 155.392 71.8576 155.2 71.2976 155.2C70.6896 155.2 70.2256 155.424 69.8736 155.84C69.5216 156.256 69.3616 156.832 69.3616 157.568V162H67.6176V157.392C67.6176 156.672 67.4576 156.128 67.1696 155.76C66.8816 155.392 66.4496 155.2 65.8896 155.2C65.2976 155.2 64.8336 155.424 64.4816 155.856C64.1296 156.304 63.9696 156.88 63.9696 157.616V162H62.2416V153.808H63.7456L63.9376 154.88C64.5136 154.112 65.3136 153.728 66.3376 153.712C66.9136 153.712 67.4096 153.84 67.8576 154.08C68.2896 154.336 68.6256 154.704 68.8656 155.2C69.1536 154.736 69.5216 154.368 70.0016 154.112C70.4656 153.856 71.0256 153.712 71.6976 153.712C72.5936 153.712 73.3136 154.016 73.8896 154.592ZM82.6881 154.224C83.2641 154.56 83.7281 155.04 84.0641 155.68C84.3841 156.32 84.5601 157.056 84.5601 157.904C84.5601 158.736 84.3841 159.472 84.0641 160.112C83.7281 160.752 83.2641 161.232 82.6881 161.584C82.0961 161.936 81.4241 162.096 80.6881 162.096C80.0801 162.096 79.5521 161.984 79.1041 161.76C78.6561 161.536 78.2881 161.232 78.0321 160.848V165.2H76.3041V153.808H77.8081L78.0161 155.024C78.6721 154.16 79.5681 153.712 80.6881 153.712C81.4241 153.712 82.0961 153.888 82.6881 154.224ZM82.1281 159.872C82.5761 159.36 82.8001 158.704 82.8001 157.904C82.8001 157.104 82.5761 156.448 82.1281 155.936C81.6801 155.44 81.1041 155.184 80.4001 155.184C79.6801 155.184 79.1041 155.44 78.6721 155.936C78.2241 156.432 78.0161 157.072 78.0161 157.872C78.0161 158.704 78.2241 159.36 78.6721 159.872C79.1041 160.384 79.6801 160.64 80.4001 160.64C81.1041 160.64 81.6801 160.384 82.1281 159.872ZM85.9447 150.8H87.6727V162H85.9447V150.8ZM91.0466 161.584C90.4066 161.232 89.9266 160.752 89.5746 160.112C89.2226 159.472 89.0626 158.736 89.0626 157.904C89.0626 157.088 89.2226 156.368 89.5746 155.728C89.9266 155.088 90.4066 154.592 91.0466 154.24C91.6866 153.888 92.4066 153.712 93.2386 153.712C94.0546 153.712 94.7746 153.888 95.4146 154.24C96.0546 154.592 96.5346 155.088 96.8866 155.728C97.2386 156.368 97.4146 157.088 97.4146 157.904C97.4146 158.736 97.2386 159.472 96.8866 160.112C96.5346 160.752 96.0546 161.232 95.4146 161.584C94.7746 161.936 94.0546 162.096 93.2386 162.096C92.4066 162.096 91.6866 161.936 91.0466 161.584ZM94.9826 159.872C95.4306 159.36 95.6546 158.704 95.6546 157.904C95.6546 157.104 95.4306 156.464 94.9826 155.952C94.5346 155.44 93.9586 155.184 93.2386 155.184C92.5026 155.184 91.9266 155.44 91.4946 155.952C91.0466 156.464 90.8386 157.104 90.8386 157.904C90.8386 158.704 91.0466 159.36 91.4946 159.872C91.9266 160.384 92.5026 160.624 93.2386 160.624C93.9586 160.624 94.5346 160.384 94.9826 159.872ZM99.5156 153.808L101.804 160.128L104.028 153.808H105.868L102.156 163.28C101.964 163.776 101.788 164.16 101.628 164.416C101.468 164.672 101.26 164.88 101.036 165.008C100.796 165.136 100.476 165.2 100.092 165.2H98.2356V163.68H99.4516C99.7716 163.68 100.012 163.632 100.14 163.536C100.268 163.44 100.396 163.2 100.54 162.848L100.876 162.064L97.6756 153.808H99.5156ZM106.621 155.712C106.957 155.072 107.421 154.592 108.029 154.24C108.637 153.888 109.325 153.712 110.109 153.712C110.893 153.712 111.581 153.872 112.189 154.192C112.797 154.512 113.261 154.976 113.613 155.552C113.965 156.144 114.141 156.832 114.157 157.616C114.157 157.84 114.141 158.048 114.109 158.272H107.933V158.368C107.965 159.088 108.189 159.648 108.605 160.064C109.005 160.48 109.549 160.688 110.221 160.688C110.749 160.688 111.197 160.576 111.565 160.32C111.917 160.064 112.157 159.712 112.285 159.248H114.013C113.853 160.08 113.453 160.768 112.797 161.296C112.141 161.84 111.325 162.096 110.349 162.096C109.485 162.096 108.749 161.936 108.109 161.584C107.469 161.232 106.989 160.752 106.637 160.112C106.285 159.488 106.125 158.752 106.125 157.92C106.125 157.088 106.285 156.352 106.621 155.712ZM112.397 157.008C112.317 156.416 112.077 155.952 111.677 155.616C111.277 155.28 110.781 155.104 110.173 155.104C109.597 155.104 109.117 155.28 108.701 155.632C108.285 155.984 108.061 156.432 107.997 157.008H112.397ZM115.746 155.712C116.082 155.072 116.546 154.592 117.154 154.24C117.762 153.888 118.45 153.712 119.234 153.712C120.018 153.712 120.706 153.872 121.314 154.192C121.922 154.512 122.386 154.976 122.738 155.552C123.09 156.144 123.266 156.832 123.282 157.616C123.282 157.84 123.266 158.048 123.234 158.272H117.058V158.368C117.09 159.088 117.314 159.648 117.73 160.064C118.13 160.48 118.674 160.688 119.346 160.688C119.874 160.688 120.322 160.576 120.69 160.32C121.042 160.064 121.282 159.712 121.41 159.248H123.138C122.978 160.08 122.578 160.768 121.922 161.296C121.266 161.84 120.45 162.096 119.474 162.096C118.61 162.096 117.874 161.936 117.234 161.584C116.594 161.232 116.114 160.752 115.762 160.112C115.41 159.488 115.25 158.752 115.25 157.92C115.25 157.088 115.41 156.352 115.746 155.712ZM121.522 157.008C121.442 156.416 121.202 155.952 120.802 155.616C120.402 155.28 119.906 155.104 119.298 155.104C118.722 155.104 118.242 155.28 117.826 155.632C117.41 155.984 117.186 156.432 117.122 157.008H121.522ZM128.949 150.8H131.333L134.917 159.616L138.437 150.8H140.773V162H138.997V153.76L135.637 162H134.085L130.725 153.76V162H128.949V150.8ZM150.488 160.496V162H149.576C149.032 162 148.648 161.888 148.424 161.664C148.184 161.44 148.072 161.12 148.072 160.688C147.448 161.632 146.552 162.096 145.368 162.096C144.44 162.096 143.704 161.888 143.16 161.456C142.6 161.04 142.328 160.448 142.328 159.696C142.328 158.864 142.616 158.208 143.224 157.76C143.816 157.312 144.68 157.072 145.832 157.072H147.896V156.576C147.896 156.128 147.736 155.76 147.416 155.504C147.096 155.248 146.648 155.104 146.088 155.104C145.576 155.104 145.16 155.216 144.84 155.44C144.52 155.664 144.328 155.952 144.264 156.304H142.568C142.648 155.488 143.016 154.848 143.656 154.4C144.296 153.952 145.128 153.712 146.168 153.712C147.256 153.712 148.104 153.968 148.712 154.48C149.304 154.992 149.608 155.728 149.608 156.688V159.92C149.608 160.304 149.784 160.496 150.152 160.496H150.488ZM147.896 158.352H145.752C145.208 158.352 144.808 158.464 144.52 158.672C144.232 158.88 144.088 159.184 144.088 159.584C144.088 159.936 144.216 160.224 144.488 160.432C144.76 160.656 145.128 160.752 145.608 160.752C146.312 160.752 146.872 160.56 147.272 160.176C147.672 159.792 147.88 159.28 147.896 158.64V158.352ZM158.117 154.608C158.725 155.216 159.045 156.176 159.045 157.488V162H157.301V157.584C157.301 156.816 157.125 156.224 156.805 155.808C156.469 155.408 155.989 155.2 155.349 155.2C154.661 155.2 154.117 155.44 153.733 155.92C153.349 156.4 153.157 157.04 153.157 157.872V162H151.429V153.808H152.933L153.125 154.88C153.733 154.112 154.613 153.712 155.749 153.712C156.709 153.712 157.509 154.016 158.117 154.608ZM168.457 160.496V162H167.545C167.001 162 166.617 161.888 166.393 161.664C166.153 161.44 166.041 161.12 166.041 160.688C165.417 161.632 164.521 162.096 163.337 162.096C162.409 162.096 161.673 161.888 161.129 161.456C160.569 161.04 160.297 160.448 160.297 159.696C160.297 158.864 160.585 158.208 161.193 157.76C161.785 157.312 162.649 157.072 163.801 157.072H165.865V156.576C165.865 156.128 165.705 155.76 165.385 155.504C165.065 155.248 164.617 155.104 164.057 155.104C163.545 155.104 163.129 155.216 162.809 155.44C162.489 155.664 162.297 155.952 162.233 156.304H160.537C160.617 155.488 160.985 154.848 161.625 154.4C162.265 153.952 163.097 153.712 164.137 153.712C165.225 153.712 166.073 153.968 166.681 154.48C167.273 154.992 167.577 155.728 167.577 156.688V159.92C167.577 160.304 167.753 160.496 168.121 160.496H168.457ZM165.865 158.352H163.721C163.177 158.352 162.777 158.464 162.489 158.672C162.201 158.88 162.057 159.184 162.057 159.584C162.057 159.936 162.185 160.224 162.457 160.432C162.729 160.656 163.097 160.752 163.577 160.752C164.281 160.752 164.841 160.56 165.241 160.176C165.641 159.792 165.849 159.28 165.865 158.64V158.352ZM177.35 153.808V161.664C177.35 162.816 176.998 163.712 176.326 164.352C175.638 164.992 174.582 165.296 173.158 165.296C172.038 165.296 171.142 165.056 170.454 164.56C169.75 164.064 169.366 163.36 169.302 162.448H171.062C171.158 162.912 171.414 163.264 171.798 163.52C172.182 163.776 172.678 163.888 173.286 163.888C174.854 163.888 175.638 163.136 175.638 161.6V160.688C175.03 161.584 174.15 162.032 172.966 162.032C172.214 162.032 171.542 161.872 170.966 161.536C170.374 161.2 169.91 160.72 169.59 160.096C169.254 159.472 169.094 158.736 169.094 157.872C169.094 157.056 169.254 156.336 169.59 155.696C169.926 155.072 170.39 154.592 170.982 154.24C171.558 153.888 172.23 153.712 172.966 153.712C173.574 153.712 174.118 153.84 174.566 154.08C175.014 154.336 175.366 154.672 175.654 155.088L175.846 153.808H177.35ZM174.982 159.84C175.414 159.344 175.638 158.704 175.638 157.904C175.638 157.104 175.414 156.448 174.982 155.936C174.534 155.424 173.958 155.168 173.254 155.168C172.534 155.168 171.958 155.424 171.526 155.92C171.078 156.432 170.87 157.072 170.87 157.872C170.87 158.672 171.078 159.328 171.526 159.824C171.958 160.336 172.534 160.576 173.254 160.576C173.958 160.576 174.534 160.336 174.982 159.84ZM179.23 155.712C179.566 155.072 180.03 154.592 180.638 154.24C181.246 153.888 181.934 153.712 182.718 153.712C183.502 153.712 184.19 153.872 184.798 154.192C185.406 154.512 185.87 154.976 186.222 155.552C186.574 156.144 186.75 156.832 186.766 157.616C186.766 157.84 186.75 158.048 186.718 158.272H180.542V158.368C180.574 159.088 180.798 159.648 181.214 160.064C181.614 160.48 182.158 160.688 182.83 160.688C183.358 160.688 183.806 160.576 184.174 160.32C184.526 160.064 184.766 159.712 184.894 159.248H186.622C186.462 160.08 186.062 160.768 185.406 161.296C184.75 161.84 183.934 162.096 182.958 162.096C182.094 162.096 181.358 161.936 180.718 161.584C180.078 161.232 179.598 160.752 179.246 160.112C178.894 159.488 178.734 158.752 178.734 157.92C178.734 157.088 178.894 156.352 179.23 155.712ZM185.006 157.008C184.926 156.416 184.686 155.952 184.286 155.616C183.886 155.28 183.39 155.104 182.782 155.104C182.206 155.104 181.726 155.28 181.31 155.632C180.894 155.984 180.67 156.432 180.606 157.008H185.006ZM199.811 154.592C200.371 155.168 200.659 156.096 200.659 157.376V162H198.931V157.392C198.931 156.688 198.787 156.144 198.499 155.76C198.211 155.392 197.779 155.2 197.219 155.2C196.611 155.2 196.147 155.424 195.795 155.84C195.443 156.256 195.283 156.832 195.283 157.568V162H193.539V157.392C193.539 156.672 193.379 156.128 193.091 155.76C192.803 155.392 192.371 155.2 191.811 155.2C191.219 155.2 190.755 155.424 190.403 155.856C190.051 156.304 189.891 156.88 189.891 157.616V162H188.163V153.808H189.667L189.859 154.88C190.435 154.112 191.235 153.728 192.259 153.712C192.835 153.712 193.331 153.84 193.779 154.08C194.211 154.336 194.547 154.704 194.787 155.2C195.075 154.736 195.443 154.368 195.923 154.112C196.387 153.856 196.947 153.712 197.619 153.712C198.515 153.712 199.235 154.016 199.811 154.592ZM202.418 155.712C202.754 155.072 203.218 154.592 203.826 154.24C204.434 153.888 205.122 153.712 205.906 153.712C206.69 153.712 207.378 153.872 207.986 154.192C208.594 154.512 209.058 154.976 209.41 155.552C209.762 156.144 209.938 156.832 209.954 157.616C209.954 157.84 209.938 158.048 209.906 158.272H203.73V158.368C203.762 159.088 203.986 159.648 204.402 160.064C204.802 160.48 205.346 160.688 206.018 160.688C206.546 160.688 206.994 160.576 207.362 160.32C207.714 160.064 207.954 159.712 208.082 159.248H209.81C209.65 160.08 209.25 160.768 208.594 161.296C207.938 161.84 207.122 162.096 206.146 162.096C205.282 162.096 204.546 161.936 203.906 161.584C203.266 161.232 202.786 160.752 202.434 160.112C202.082 159.488 201.922 158.752 201.922 157.92C201.922 157.088 202.082 156.352 202.418 155.712ZM208.194 157.008C208.114 156.416 207.874 155.952 207.474 155.616C207.074 155.28 206.578 155.104 205.97 155.104C205.394 155.104 204.914 155.28 204.498 155.632C204.082 155.984 203.858 156.432 203.794 157.008H208.194ZM218.039 154.608C218.647 155.216 218.967 156.176 218.967 157.488V162H217.223V157.584C217.223 156.816 217.047 156.224 216.727 155.808C216.391 155.408 215.911 155.2 215.271 155.2C214.583 155.2 214.039 155.44 213.655 155.92C213.271 156.4 213.079 157.04 213.079 157.872V162H211.351V153.808H212.855L213.047 154.88C213.655 154.112 214.535 153.712 215.671 153.712C216.631 153.712 217.431 154.016 218.039 154.608ZM221.066 155.328H219.642V153.808H221.066V151.52H222.81V153.808H224.778V155.328H222.81V159.6C222.81 159.92 222.874 160.16 223.002 160.288C223.13 160.416 223.338 160.48 223.658 160.48H224.97V162H223.306C222.522 162 221.946 161.824 221.594 161.456C221.242 161.104 221.066 160.544 221.066 159.776V155.328Z" fill="#515251"/>
<path d="M247.5 156L244 160L240.5 156" stroke="#515251" stroke-width="1.6" stroke-linecap="round" stroke-linejoin="round"/>
<path d="M272 183.2H0V184.8H272V183.2Z" fill="#E7E8E7" mask="url(#path-14-inside-3_1_1322)"/>
<mask id="path-19-inside-4_1_1322" fill="white">
<path d="M0 184H272V240H0V184Z"/>
</mask>
<path d="M0 184H272V240H0V184Z" fill="white"/>
<g clip-path="url(#clip1_1_1322)">
<path d="M33.5094 219.047C29.6349 219.047 25.757 219.047 21.8825 219.047C21.8625 219.037 21.8425 219.027 21.8226 219.021C20.9272 218.849 20.3779 218.204 20.3779 217.311C20.3779 212.83 20.3779 208.346 20.3779 203.865C20.3779 202.85 21.0936 202.146 22.1155 202.146C24.6119 202.149 27.1084 202.162 29.6049 202.165C30.0143 202.165 30.3538 202.308 30.6468 202.592C31.9316 203.835 33.2198 205.075 34.5146 206.309C34.8242 206.603 34.964 206.941 34.964 207.364C34.9573 209.669 34.9607 211.974 34.9607 214.279C34.9607 215.297 34.964 216.312 34.9607 217.331C34.9573 218.111 34.518 218.743 33.8256 218.965C33.7224 218.994 33.6159 219.017 33.5094 219.047ZM29.2487 203.495C29.1755 203.491 29.1222 203.485 29.069 203.485C26.7889 203.478 24.5054 203.468 22.2253 203.462C21.7926 203.462 21.7061 203.548 21.7061 203.968C21.7061 208.376 21.7061 212.781 21.7061 217.189C21.7061 217.245 21.7061 217.298 21.7061 217.354C21.7127 217.559 21.8492 217.701 22.0589 217.718C22.1088 217.721 22.1587 217.718 22.2087 217.718C25.8635 217.718 29.5184 217.718 33.1732 217.718C33.5393 217.718 33.6325 217.622 33.6325 217.258C33.6325 214.126 33.6325 210.998 33.6325 207.866C33.6325 207.807 33.6325 207.751 33.6325 207.681C33.546 207.681 33.4861 207.681 33.4262 207.681C32.6106 207.681 31.7985 207.681 30.9829 207.681C29.9644 207.678 29.2487 206.967 29.2454 205.958C29.2421 205.198 29.2454 204.441 29.2454 203.68C29.2487 203.627 29.2487 203.567 29.2487 203.495ZM30.5769 204.361C30.5769 204.923 30.5769 205.439 30.5769 205.955C30.5769 206.236 30.7067 206.365 30.9929 206.365C31.5022 206.368 32.0115 206.365 32.5208 206.365C32.5541 206.365 32.5873 206.355 32.6439 206.345C31.9549 205.684 31.2859 205.042 30.5769 204.361Z" fill="#515251"/>
<path d="M27.6696 215.85C29.0514 215.85 30.4294 215.85 31.8112 215.85C32.3041 215.85 32.6457 215.511 32.6302 215.052C32.6185 214.721 32.3779 214.42 32.0518 214.343C31.9587 214.32 31.8616 214.312 31.7646 214.312C29.0359 214.312 26.3072 214.312 23.5785 214.312C23.1282 214.312 22.8255 214.536 22.7362 214.925C22.6353 215.353 22.9536 215.796 23.3922 215.843C23.4815 215.85 23.5707 215.85 23.6639 215.85C24.9991 215.85 26.3344 215.85 27.6696 215.85Z" fill="#515251"/>
<path d="M26.6687 212.773C27.7206 212.773 28.7725 212.777 29.8244 212.769C30.4066 212.765 30.7831 212.214 30.5541 211.705C30.4027 211.366 30.1233 211.231 29.7623 211.231C28.7764 211.231 27.7866 211.231 26.8007 211.231C25.7216 211.231 24.6465 211.231 23.5674 211.231C23.1598 211.231 22.8649 211.427 22.7523 211.759C22.5854 212.26 22.9464 212.762 23.4937 212.765C24.4097 212.773 25.3257 212.769 26.2418 212.769C26.3854 212.773 26.529 212.773 26.6687 212.773Z" fill="#515251"/>
<path d="M25.6749 209.692C26.4046 209.692 27.1305 209.696 27.8602 209.688C28.2095 209.684 28.4851 209.453 28.5744 209.118C28.6598 208.809 28.5433 208.466 28.26 208.296C28.128 208.219 27.9611 208.157 27.8097 208.157C26.3774 208.146 24.9452 208.15 23.5168 208.153C23.0937 208.153 22.7793 208.431 22.7211 208.824C22.6667 209.183 22.8996 209.546 23.2645 209.654C23.3654 209.684 23.4818 209.688 23.5905 209.688C24.2853 209.696 24.9801 209.692 25.6749 209.692Z" fill="#515251"/>
</g>
<path d="M54.8306 206.8C55.5986 206.8 56.2706 206.96 56.8626 207.248C57.4386 207.536 57.9026 207.952 58.2226 208.496C58.5426 209.04 58.7026 209.664 58.7026 210.368C58.7026 211.088 58.5426 211.712 58.2226 212.256C57.9026 212.8 57.4386 213.216 56.8626 213.504C56.2706 213.792 55.5986 213.936 54.8306 213.936H52.2546V218H50.4146V206.8H54.8306ZM52.2546 212.336H54.6706C55.3266 212.336 55.8546 212.16 56.2386 211.808C56.6226 211.456 56.8306 210.976 56.8306 210.368C56.8306 209.76 56.6386 209.28 56.2546 208.928C55.8706 208.576 55.3426 208.4 54.6866 208.4H52.2546V212.336ZM67.2973 216.496V218H66.3853C65.8413 218 65.4573 217.888 65.2333 217.664C64.9933 217.44 64.8813 217.12 64.8813 216.688C64.2573 217.632 63.3613 218.096 62.1773 218.096C61.2493 218.096 60.5133 217.888 59.9693 217.456C59.4093 217.04 59.1373 216.448 59.1373 215.696C59.1373 214.864 59.4253 214.208 60.0333 213.76C60.6253 213.312 61.4893 213.072 62.6413 213.072H64.7053V212.576C64.7053 212.128 64.5453 211.76 64.2253 211.504C63.9053 211.248 63.4573 211.104 62.8973 211.104C62.3853 211.104 61.9693 211.216 61.6493 211.44C61.3293 211.664 61.1373 211.952 61.0733 212.304H59.3773C59.4573 211.488 59.8253 210.848 60.4653 210.4C61.1053 209.952 61.9373 209.712 62.9773 209.712C64.0653 209.712 64.9133 209.968 65.5213 210.48C66.1133 210.992 66.4173 211.728 66.4173 212.688V215.92C66.4173 216.304 66.5933 216.496 66.9613 216.496H67.2973ZM64.7053 214.352H62.5613C62.0173 214.352 61.6173 214.464 61.3293 214.672C61.0413 214.88 60.8973 215.184 60.8973 215.584C60.8973 215.936 61.0253 216.224 61.2973 216.432C61.5693 216.656 61.9373 216.752 62.4173 216.752C63.1213 216.752 63.6813 216.56 64.0813 216.176C64.4813 215.792 64.6893 215.28 64.7053 214.64V214.352ZM69.0126 209.808L71.3006 216.128L73.5246 209.808H75.3646L71.6526 219.28C71.4606 219.776 71.2846 220.16 71.1246 220.416C70.9646 220.672 70.7566 220.88 70.5326 221.008C70.2926 221.136 69.9726 221.2 69.5886 221.2H67.7326V219.68H68.9486C69.2686 219.68 69.5086 219.632 69.6366 219.536C69.7646 219.44 69.8926 219.2 70.0366 218.848L70.3726 218.064L67.1726 209.808H69.0126ZM80.7666 209.808V211.424H79.9986C79.2786 211.424 78.7666 211.664 78.4466 212.128C78.1266 212.592 77.9666 213.184 77.9666 213.888V218H76.2386V209.808H77.7746L77.9666 211.04C78.1906 210.656 78.4946 210.368 78.8786 210.144C79.2466 209.92 79.7426 209.808 80.3826 209.808H80.7666ZM83.1529 217.584C82.5129 217.232 82.0329 216.752 81.6809 216.112C81.3289 215.472 81.1689 214.736 81.1689 213.904C81.1689 213.088 81.3289 212.368 81.6809 211.728C82.0329 211.088 82.5129 210.592 83.1529 210.24C83.7929 209.888 84.5129 209.712 85.3449 209.712C86.1609 209.712 86.8809 209.888 87.5209 210.24C88.1609 210.592 88.6409 211.088 88.9929 211.728C89.3449 212.368 89.5209 213.088 89.5209 213.904C89.5209 214.736 89.3449 215.472 88.9929 216.112C88.6409 216.752 88.1609 217.232 87.5209 217.584C86.8809 217.936 86.1609 218.096 85.3449 218.096C84.5129 218.096 83.7929 217.936 83.1529 217.584ZM87.0889 215.872C87.5369 215.36 87.7609 214.704 87.7609 213.904C87.7609 213.104 87.5369 212.464 87.0889 211.952C86.6409 211.44 86.0649 211.184 85.3449 211.184C84.6089 211.184 84.0329 211.44 83.6009 211.952C83.1529 212.464 82.9449 213.104 82.9449 213.904C82.9449 214.704 83.1529 215.36 83.6009 215.872C84.0329 216.384 84.6089 216.624 85.3449 216.624C86.0649 216.624 86.6409 216.384 87.0889 215.872ZM90.9104 206.8H92.6384V218H90.9104V206.8ZM94.3323 206.8H96.0603V218H94.3323V206.8Z" fill="#515251"/>
<path d="M247.5 210L244 214L240.5 210" stroke="#515251" stroke-width="1.6" stroke-linecap="round" stroke-linejoin="round"/>
<path d="M272 239.2H0V240.8H272V239.2Z" fill="#E7E8E7" mask="url(#path-19-inside-4_1_1322)"/>
<mask id="path-27-inside-5_1_1322" fill="white">
<path d="M0 240H272V296H0V240Z"/>
</mask>
<path d="M0 240H272V296H0V240Z" fill="white"/>
<path d="M29.8359 261.197C29.782 261.372 29.7529 261.557 29.7529 261.75C29.7529 262.095 30.0328 262.375 30.3779 262.375H34.1279C34.4731 262.375 34.7529 262.095 34.7529 261.75C34.7529 261.557 34.7239 261.372 34.67 261.197M29.8359 261.197C30.0719 260.431 30.7849 259.875 31.6279 259.875H32.8779C33.7209 259.875 34.434 260.431 34.67 261.197M29.8359 261.197C29.5228 261.215 29.2107 261.238 28.8997 261.264C27.9571 261.342 27.2529 262.144 27.2529 263.09V264.875M34.67 261.197C34.983 261.215 35.2951 261.238 35.6062 261.264C36.5488 261.342 37.2529 262.144 37.2529 263.09V271.75C37.2529 272.786 36.4135 273.625 35.3779 273.625H33.5029M27.2529 264.875H24.4404C23.9227 264.875 23.5029 265.295 23.5029 265.812V275.188C23.5029 275.705 23.9227 276.125 24.4404 276.125H32.5654C33.0832 276.125 33.5029 275.705 33.5029 275.188V273.625M27.2529 264.875H32.5654C33.0832 264.875 33.5029 265.295 33.5029 265.812V273.625M26.6279 271.125L27.8779 272.375L30.3779 269.25" stroke="#515251" stroke-width="1.3" stroke-linecap="round" stroke-linejoin="round"/>
<path d="M53.6259 265.424C54.0739 264.56 54.6979 263.904 55.5139 263.424C56.3299 262.944 57.2899 262.704 58.3779 262.704C59.2099 262.704 59.9779 262.864 60.6499 263.184C61.3219 263.504 61.8819 263.968 62.3139 264.56C62.7299 265.152 63.0019 265.84 63.1299 266.608H61.2899C61.0979 265.904 60.7459 265.344 60.2339 264.928C59.7059 264.528 59.0659 264.32 58.2979 264.32C57.5939 264.32 56.9859 264.496 56.4739 264.848C55.9459 265.2 55.5459 265.68 55.2739 266.288C54.9859 266.896 54.8579 267.6 54.8579 268.4C54.8579 269.2 54.9859 269.904 55.2739 270.512C55.5459 271.136 55.9459 271.616 56.4739 271.968C56.9859 272.32 57.5939 272.48 58.2979 272.48C59.0659 272.48 59.7059 272.288 60.2179 271.872C60.7299 271.472 61.0819 270.912 61.2739 270.192H63.1139C62.9859 270.992 62.7139 271.68 62.2979 272.256C61.8819 272.848 61.3379 273.296 60.6659 273.616C59.9939 273.936 59.2259 274.096 58.3779 274.096C57.2899 274.096 56.3299 273.872 55.5139 273.392C54.6979 272.928 54.0739 272.272 53.6259 271.408C53.1779 270.544 52.9699 269.552 52.9699 268.4C52.9699 267.28 53.1779 266.288 53.6259 265.424ZM66.2028 273.584C65.5628 273.232 65.0828 272.752 64.7308 272.112C64.3788 271.472 64.2188 270.736 64.2188 269.904C64.2188 269.088 64.3788 268.368 64.7308 267.728C65.0828 267.088 65.5628 266.592 66.2028 266.24C66.8428 265.888 67.5628 265.712 68.3948 265.712C69.2108 265.712 69.9308 265.888 70.5708 266.24C71.2108 266.592 71.6908 267.088 72.0428 267.728C72.3948 268.368 72.5708 269.088 72.5708 269.904C72.5708 270.736 72.3948 271.472 72.0428 272.112C71.6908 272.752 71.2108 273.232 70.5708 273.584C69.9308 273.936 69.2108 274.096 68.3948 274.096C67.5628 274.096 66.8428 273.936 66.2028 273.584ZM70.1388 271.872C70.5868 271.36 70.8108 270.704 70.8108 269.904C70.8108 269.104 70.5868 268.464 70.1388 267.952C69.6908 267.44 69.1148 267.184 68.3948 267.184C67.6588 267.184 67.0828 267.44 66.6508 267.952C66.2028 268.464 65.9948 269.104 65.9948 269.904C65.9948 270.704 66.2028 271.36 66.6508 271.872C67.0828 272.384 67.6588 272.624 68.3948 272.624C69.1148 272.624 69.6908 272.384 70.1388 271.872ZM85.6083 266.592C86.1683 267.168 86.4563 268.096 86.4563 269.376V274H84.7283V269.392C84.7283 268.688 84.5843 268.144 84.2963 267.76C84.0083 267.392 83.5763 267.2 83.0163 267.2C82.4083 267.2 81.9443 267.424 81.5923 267.84C81.2403 268.256 81.0803 268.832 81.0803 269.568V274H79.3363V269.392C79.3363 268.672 79.1763 268.128 78.8883 267.76C78.6003 267.392 78.1683 267.2 77.6083 267.2C77.0163 267.2 76.5523 267.424 76.2003 267.856C75.8483 268.304 75.6883 268.88 75.6883 269.616V274H73.9603V265.808H75.4643L75.6563 266.88C76.2323 266.112 77.0323 265.728 78.0563 265.712C78.6323 265.712 79.1283 265.84 79.5763 266.08C80.0083 266.336 80.3443 266.704 80.5843 267.2C80.8723 266.736 81.2403 266.368 81.7203 266.112C82.1843 265.856 82.7443 265.712 83.4163 265.712C84.3123 265.712 85.0323 266.016 85.6083 266.592ZM94.4068 266.224C94.9828 266.56 95.4468 267.04 95.7828 267.68C96.1028 268.32 96.2788 269.056 96.2788 269.904C96.2788 270.736 96.1028 271.472 95.7828 272.112C95.4468 272.752 94.9828 273.232 94.4068 273.584C93.8148 273.936 93.1428 274.096 92.4068 274.096C91.7988 274.096 91.2708 273.984 90.8228 273.76C90.3748 273.536 90.0068 273.232 89.7508 272.848V277.2H88.0228V265.808H89.5268L89.7348 267.024C90.3908 266.16 91.2868 265.712 92.4068 265.712C93.1428 265.712 93.8148 265.888 94.4068 266.224ZM93.8468 271.872C94.2948 271.36 94.5188 270.704 94.5188 269.904C94.5188 269.104 94.2948 268.448 93.8468 267.936C93.3988 267.44 92.8228 267.184 92.1188 267.184C91.3988 267.184 90.8228 267.44 90.3908 267.936C89.9428 268.432 89.7348 269.072 89.7348 269.872C89.7348 270.704 89.9428 271.36 90.3908 271.872C90.8228 272.384 91.3988 272.64 92.1188 272.64C92.8228 272.64 93.3988 272.384 93.8468 271.872ZM97.6634 262.8H99.3914V274H97.6634V262.8ZM102.701 262.832C102.893 263.024 103.005 263.28 103.005 263.568C103.005 263.872 102.893 264.128 102.701 264.32C102.493 264.512 102.237 264.608 101.949 264.608C101.645 264.608 101.389 264.512 101.197 264.32C100.989 264.128 100.893 263.872 100.893 263.568C100.893 263.28 100.989 263.024 101.197 262.832C101.389 262.64 101.645 262.528 101.949 262.528C102.237 262.528 102.493 262.64 102.701 262.832ZM101.085 265.808H102.813V274H101.085V265.808ZM112.347 272.496V274H111.435C110.891 274 110.507 273.888 110.283 273.664C110.043 273.44 109.931 273.12 109.931 272.688C109.307 273.632 108.411 274.096 107.227 274.096C106.299 274.096 105.563 273.888 105.019 273.456C104.459 273.04 104.187 272.448 104.187 271.696C104.187 270.864 104.475 270.208 105.083 269.76C105.675 269.312 106.539 269.072 107.691 269.072H109.755V268.576C109.755 268.128 109.595 267.76 109.275 267.504C108.955 267.248 108.507 267.104 107.947 267.104C107.435 267.104 107.019 267.216 106.699 267.44C106.379 267.664 106.187 267.952 106.123 268.304H104.427C104.507 267.488 104.875 266.848 105.515 266.4C106.155 265.952 106.987 265.712 108.027 265.712C109.115 265.712 109.963 265.968 110.571 266.48C111.163 266.992 111.467 267.728 111.467 268.688V271.92C111.467 272.304 111.643 272.496 112.011 272.496H112.347ZM109.755 270.352H107.611C107.067 270.352 106.667 270.464 106.379 270.672C106.091 270.88 105.947 271.184 105.947 271.584C105.947 271.936 106.075 272.224 106.347 272.432C106.619 272.656 106.987 272.752 107.467 272.752C108.171 272.752 108.731 272.56 109.131 272.176C109.531 271.792 109.739 271.28 109.755 270.64V270.352ZM119.976 266.608C120.584 267.216 120.904 268.176 120.904 269.488V274H119.16V269.584C119.16 268.816 118.984 268.224 118.664 267.808C118.328 267.408 117.848 267.2 117.208 267.2C116.52 267.2 115.976 267.44 115.592 267.92C115.208 268.4 115.016 269.04 115.016 269.872V274H113.288V265.808H114.792L114.984 266.88C115.592 266.112 116.472 265.712 117.608 265.712C118.568 265.712 119.368 266.016 119.976 266.608ZM128.796 273.296C128.124 273.84 127.276 274.096 126.252 274.096C125.436 274.096 124.716 273.936 124.108 273.584C123.484 273.232 123.004 272.736 122.668 272.096C122.332 271.456 122.172 270.72 122.172 269.888C122.172 269.056 122.332 268.336 122.684 267.696C123.02 267.072 123.5 266.592 124.124 266.24C124.748 265.888 125.468 265.712 126.3 265.712C127.324 265.712 128.156 265.984 128.812 266.528C129.452 267.072 129.868 267.792 130.028 268.72H128.252C128.124 268.256 127.9 267.888 127.548 267.6C127.196 267.328 126.764 267.184 126.252 267.184C125.548 267.184 124.988 267.44 124.572 267.936C124.156 268.448 123.948 269.088 123.948 269.888C123.948 270.704 124.156 271.36 124.572 271.872C124.988 272.384 125.548 272.624 126.252 272.624C126.78 272.624 127.228 272.496 127.58 272.208C127.932 271.92 128.156 271.536 128.268 271.056H130.028C129.868 272.016 129.452 272.752 128.796 273.296ZM131.465 267.712C131.801 267.072 132.265 266.592 132.873 266.24C133.481 265.888 134.169 265.712 134.953 265.712C135.737 265.712 136.425 265.872 137.033 266.192C137.641 266.512 138.105 266.976 138.457 267.552C138.809 268.144 138.985 268.832 139.001 269.616C139.001 269.84 138.985 270.048 138.953 270.272H132.777V270.368C132.809 271.088 133.033 271.648 133.449 272.064C133.849 272.48 134.393 272.688 135.065 272.688C135.593 272.688 136.041 272.576 136.409 272.32C136.761 272.064 137.001 271.712 137.129 271.248H138.857C138.697 272.08 138.297 272.768 137.641 273.296C136.985 273.84 136.169 274.096 135.193 274.096C134.329 274.096 133.593 273.936 132.953 273.584C132.313 273.232 131.833 272.752 131.481 272.112C131.129 271.488 130.969 270.752 130.969 269.92C130.969 269.088 131.129 268.352 131.465 267.712ZM137.241 269.008C137.161 268.416 136.921 267.952 136.521 267.616C136.121 267.28 135.625 267.104 135.017 267.104C134.441 267.104 133.961 267.28 133.545 267.632C133.129 267.984 132.905 268.432 132.841 269.008H137.241Z" fill="#515251"/>
<path d="M247.5 266L244 270L240.5 266" stroke="#8D8E8D" stroke-width="1.6" stroke-linecap="round" stroke-linejoin="round"/>
<path d="M272 295.2H0V296.8H272V295.2Z" fill="#E7E8E7" mask="url(#path-27-inside-5_1_1322)"/>
<mask id="path-32-inside-6_1_1322" fill="white">
<path d="M0 296H272V352H0V296Z"/>
</mask>
<path d="M0 296H272V352H0V296Z" fill="white"/>
<g clip-path="url(#clip2_1_1322)">
<path d="M32.2494 313.339C32.675 313.422 33.109 313.476 33.5262 313.597C36.009 314.298 37.8659 316.493 38.1705 319.055C38.5628 322.377 36.4931 325.415 33.2884 326.22C29.6998 327.121 26.0195 324.734 25.3769 321.087C24.8177 317.933 26.466 314.937 29.4244 313.785C29.9544 313.581 30.5344 313.51 31.0935 313.376C31.1478 313.364 31.202 313.351 31.2521 313.339C31.5817 313.339 31.9156 313.339 32.2494 313.339ZM36.9729 319.869C36.9646 316.94 34.6153 314.578 31.7194 314.59C28.8402 314.599 26.4993 316.986 26.5077 319.894C26.516 322.802 28.8778 325.173 31.757 325.164C34.632 325.156 36.9813 322.773 36.9729 319.869Z" fill="#515251"/>
<path d="M22.9942 328.527C23.036 328.356 23.061 328.206 23.1111 328.064C23.399 327.25 24.0124 326.85 24.8303 326.666C26.224 326.353 27.5509 326.495 28.8319 327.15C29.2909 327.384 29.775 327.588 30.2674 327.755C30.5636 327.855 30.8891 327.893 31.2062 327.906C31.8363 327.926 32.4706 327.91 33.1006 327.914C33.5597 327.914 33.8058 328.168 33.7933 328.627C33.7766 329.249 33.5805 329.808 33.205 330.355C33.5138 330.355 33.7933 330.363 34.0687 330.351C34.123 330.347 34.1772 330.271 34.2273 330.221C34.8115 329.637 35.3915 329.049 35.9798 328.473C37.119 327.359 38.9091 327.326 40.0942 328.39C40.4697 328.728 40.4822 329.091 40.1276 329.445C38.6671 330.91 37.2025 332.37 35.742 333.831C35.1787 334.394 34.4985 334.67 33.7057 334.67C29.5079 334.67 25.3101 334.67 21.1123 334.67C20.6158 334.661 20.3779 334.423 20.3779 333.931C20.3779 332.37 20.3779 330.81 20.3779 329.245C20.3779 328.757 20.6116 328.527 21.1082 328.527C21.7299 328.523 22.3558 328.527 22.9942 328.527ZM24.2544 333.414C24.3546 333.414 24.4297 333.414 24.5048 333.414C27.5425 333.414 30.5845 333.409 33.6222 333.418C34.1313 333.418 34.5486 333.251 34.9075 332.888C36.1509 331.636 37.3986 330.392 38.6462 329.145C38.688 329.103 38.7213 329.057 38.7714 329.003C38.7213 328.982 38.6921 328.961 38.6588 328.953C37.9536 328.732 37.3318 328.878 36.8019 329.399C36.1718 330.025 35.5375 330.647 34.92 331.285C34.6988 331.511 34.461 331.611 34.148 331.607C32.1993 331.598 30.2465 331.598 28.2978 331.598C28.0391 331.598 27.7846 331.603 27.5259 331.59C27.2838 331.578 27.1086 331.444 27.0084 331.227C26.9125 331.014 26.9333 330.806 27.071 330.614C27.2171 330.405 27.4299 330.342 27.6719 330.342C28.5941 330.347 29.5163 330.347 30.4426 330.347C30.622 330.347 30.8056 330.347 30.9809 330.33C31.6193 330.259 32.2494 329.742 32.408 329.153C32.0283 329.153 31.6569 329.149 31.2855 329.153C30.6971 329.162 30.1213 329.07 29.5788 328.844C29.0781 328.64 28.5816 328.427 28.0975 328.185C27.0585 327.672 25.9945 327.638 24.897 327.939C24.4464 328.06 24.2544 328.319 24.2544 328.782C24.2544 329.883 24.2544 330.989 24.2544 332.091C24.2544 332.525 24.2544 332.955 24.2544 333.414ZM22.9942 333.401C22.9942 332.187 22.9942 330.989 22.9942 329.787C22.5352 329.787 22.0929 329.787 21.6381 329.787C21.6381 330.998 21.6381 332.195 21.6381 333.401C22.0929 333.401 22.5352 333.401 22.9942 333.401Z" fill="#515251"/>
<g clip-path="url(#clip3_1_1322)">
<path d="M32.7684 318.005C32.7684 317.844 32.7723 317.683 32.7684 317.522C32.7653 317.436 32.7973 317.413 32.8783 317.415C33.1077 317.419 33.3375 317.42 33.5666 317.415C33.6643 317.412 33.692 317.445 33.6905 317.54C33.6854 317.842 33.6932 318.145 33.6866 318.448C33.6842 318.559 33.7104 318.604 33.8312 318.6C34.0946 318.593 34.095 318.6 34.095 318.871C34.095 319.032 34.0915 319.193 34.095 319.354C34.0974 319.433 34.0766 319.464 33.9903 319.465C33.6877 319.472 33.6877 319.476 33.6877 319.786C33.6877 319.937 33.6916 320.088 33.6877 320.24C33.685 320.323 33.7131 320.348 33.796 320.35C34.095 320.359 34.095 320.362 34.095 320.659C34.095 320.81 34.0915 320.962 34.095 321.113C34.0978 321.195 34.0704 321.22 33.9867 321.222C33.6873 321.228 33.6877 321.232 33.6877 321.53C33.6877 321.76 33.6842 321.99 33.6877 322.219C33.6877 322.309 33.6576 322.336 33.5705 322.334C33.3168 322.329 33.0624 322.329 32.8087 322.334C32.773 322.337 32.7371 322.33 32.7058 322.312C32.6745 322.295 32.6493 322.268 32.6336 322.236C32.4522 321.935 32.263 321.639 32.0832 321.337C32.0332 321.252 31.9797 321.215 31.8765 321.217C31.5298 321.224 31.1831 321.222 30.8364 321.217C30.7402 321.217 30.7121 321.244 30.714 321.34C30.7199 321.628 30.7117 321.916 30.7183 322.204C30.7207 322.309 30.6867 322.337 30.5854 322.333C30.3658 322.326 30.1457 322.325 29.9264 322.333C29.8111 322.338 29.7873 322.294 29.7893 322.191C29.7955 321.912 29.7865 321.634 29.7936 321.356C29.7963 321.249 29.7693 321.212 29.6564 321.215C29.3964 321.221 29.396 321.215 29.396 320.958C29.396 320.787 29.3992 320.616 29.396 320.445C29.396 320.367 29.423 320.347 29.4977 320.345C29.7928 320.333 29.7928 320.33 29.7928 320.032C29.7928 319.881 29.7885 319.729 29.7928 319.578C29.7959 319.49 29.7689 319.46 29.6779 319.46C29.396 319.458 29.396 319.454 29.396 319.166C29.396 319.015 29.4007 318.864 29.396 318.712C29.3921 318.623 29.4203 318.595 29.511 318.595C29.7936 318.591 29.7936 318.586 29.7936 318.296C29.7936 318.042 29.7963 317.788 29.7936 317.535C29.7936 317.449 29.8147 317.413 29.9085 317.415C30.1574 317.421 30.4064 317.42 30.6554 317.415C30.6889 317.412 30.7225 317.42 30.7515 317.437C30.7806 317.454 30.8038 317.479 30.818 317.51C31.0134 317.836 31.2175 318.158 31.4129 318.484C31.4606 318.563 31.511 318.602 31.6083 318.602C31.955 318.595 32.3017 318.596 32.6484 318.602C32.7438 318.602 32.777 318.574 32.7727 318.477C32.7653 318.321 32.7727 318.164 32.7727 318.008L32.7684 318.005ZM32.0121 319.463C32.1939 319.76 32.3604 320.033 32.5292 320.305C32.5757 320.38 32.6535 320.346 32.7172 320.344C32.7954 320.341 32.7665 320.272 32.7669 320.23C32.7696 320.01 32.7669 319.79 32.7669 319.571C32.7669 319.517 32.777 319.461 32.6914 319.462C32.4753 319.465 32.2576 319.463 32.0121 319.463ZM31.4676 320.347L30.9501 319.508C30.9032 319.432 30.827 319.463 30.7641 319.466C30.6859 319.47 30.7179 319.539 30.7176 319.581C30.7144 319.8 30.7176 320.019 30.7176 320.239C30.7176 320.29 30.7035 320.349 30.7906 320.348C31.0064 320.346 31.2233 320.347 31.4676 320.347Z" fill="#515251"/>
</g>
</g>
<path d="M64.4259 328.384V330H63.3379C62.8899 330 62.5539 329.952 62.2979 329.824C62.0419 329.696 61.8179 329.504 61.6099 329.216L61.5619 329.152C60.6659 329.792 59.6099 330.096 58.4099 330.096C57.3539 330.096 56.4099 329.856 55.5779 329.36C54.7459 328.88 54.1059 328.192 53.6579 327.328C53.1939 326.464 52.9699 325.488 52.9699 324.4C52.9699 323.312 53.1939 322.336 53.6579 321.472C54.1059 320.608 54.7459 319.936 55.5779 319.44C56.4099 318.96 57.3539 318.704 58.4099 318.704C59.4659 318.704 60.3939 318.96 61.2259 319.44C62.0579 319.936 62.6979 320.608 63.1619 321.472C63.6099 322.336 63.8499 323.312 63.8499 324.4C63.8499 325.104 63.7379 325.776 63.5459 326.4C63.3379 327.024 63.0499 327.584 62.6819 328.08C62.8739 328.288 63.1299 328.384 63.4499 328.384H64.4259ZM60.5059 327.792L60.2659 327.472C60.1219 327.28 59.9779 327.152 59.8499 327.056C59.7059 326.976 59.5459 326.928 59.3699 326.928H58.3779V325.328H59.5779C59.9619 325.328 60.2819 325.392 60.5059 325.52C60.7299 325.648 60.9539 325.84 61.1619 326.112L61.4979 326.544C61.8019 325.936 61.9619 325.216 61.9619 324.4C61.9619 323.632 61.8019 322.928 61.5139 322.304C61.2099 321.68 60.7939 321.2 60.2499 320.848C59.7059 320.496 59.0979 320.32 58.4099 320.32C57.7059 320.32 57.0979 320.496 56.5539 320.848C56.0099 321.2 55.5939 321.68 55.3059 322.304C55.0019 322.928 54.8579 323.632 54.8579 324.4C54.8579 325.184 55.0019 325.888 55.3059 326.512C55.5939 327.136 56.0099 327.616 56.5539 327.968C57.0979 328.32 57.7059 328.48 58.4099 328.48C59.2099 328.48 59.8979 328.256 60.5059 327.792ZM72.7106 321.808V330H71.1906L70.9986 328.96C70.3746 329.728 69.5266 330.096 68.4706 330.096C67.5106 330.096 66.7266 329.808 66.1346 329.2C65.5266 328.608 65.2386 327.648 65.2386 326.32V321.808H66.9666V326.144C66.9666 326.944 67.1266 327.552 67.4466 327.968C67.7666 328.384 68.2306 328.592 68.8706 328.592C69.5266 328.592 70.0386 328.352 70.4226 327.872C70.7906 327.392 70.9826 326.72 70.9826 325.872V321.808H72.7106ZM76.0294 318.832C76.2214 319.024 76.3334 319.28 76.3334 319.568C76.3334 319.872 76.2214 320.128 76.0294 320.32C75.8214 320.512 75.5654 320.608 75.2774 320.608C74.9734 320.608 74.7174 320.512 74.5254 320.32C74.3174 320.128 74.2214 319.872 74.2214 319.568C74.2214 319.28 74.3174 319.024 74.5254 318.832C74.7174 318.64 74.9734 318.528 75.2774 318.528C75.5654 318.528 75.8214 318.64 76.0294 318.832ZM74.4134 321.808H76.1414V330H74.4134V321.808ZM84.1553 329.296C83.4833 329.84 82.6353 330.096 81.6113 330.096C80.7953 330.096 80.0753 329.936 79.4673 329.584C78.8433 329.232 78.3633 328.736 78.0273 328.096C77.6913 327.456 77.5313 326.72 77.5313 325.888C77.5313 325.056 77.6913 324.336 78.0433 323.696C78.3793 323.072 78.8593 322.592 79.4833 322.24C80.1073 321.888 80.8273 321.712 81.6593 321.712C82.6833 321.712 83.5153 321.984 84.1713 322.528C84.8113 323.072 85.2273 323.792 85.3873 324.72H83.6113C83.4833 324.256 83.2593 323.888 82.9073 323.6C82.5553 323.328 82.1233 323.184 81.6113 323.184C80.9073 323.184 80.3473 323.44 79.9313 323.936C79.5153 324.448 79.3073 325.088 79.3073 325.888C79.3073 326.704 79.5153 327.36 79.9313 327.872C80.3473 328.384 80.9073 328.624 81.6113 328.624C82.1393 328.624 82.5873 328.496 82.9393 328.208C83.2913 327.92 83.5153 327.536 83.6273 327.056H85.3873C85.2273 328.016 84.8113 328.752 84.1553 329.296ZM86.7728 318.8H88.5008V325.808L92.2448 321.808H94.2448L91.1888 325.104L94.4368 330H92.3888L89.9568 326.368L88.5008 327.904V330H86.7728V318.8ZM99.6363 330V318.8H101.476V328.368H106.292V330H99.6363ZM108.843 329.584C108.203 329.232 107.723 328.752 107.371 328.112C107.019 327.472 106.859 326.736 106.859 325.904C106.859 325.088 107.019 324.368 107.371 323.728C107.723 323.088 108.203 322.592 108.843 322.24C109.483 321.888 110.203 321.712 111.035 321.712C111.851 321.712 112.571 321.888 113.211 322.24C113.851 322.592 114.331 323.088 114.683 323.728C115.035 324.368 115.211 325.088 115.211 325.904C115.211 326.736 115.035 327.472 114.683 328.112C114.331 328.752 113.851 329.232 113.211 329.584C112.571 329.936 111.851 330.096 111.035 330.096C110.203 330.096 109.483 329.936 108.843 329.584ZM112.779 327.872C113.227 327.36 113.451 326.704 113.451 325.904C113.451 325.104 113.227 324.464 112.779 323.952C112.331 323.44 111.755 323.184 111.035 323.184C110.299 323.184 109.723 323.44 109.291 323.952C108.843 324.464 108.635 325.104 108.635 325.904C108.635 326.704 108.843 327.36 109.291 327.872C109.723 328.384 110.299 328.624 111.035 328.624C111.755 328.624 112.331 328.384 112.779 327.872ZM124.441 328.496V330H123.529C122.985 330 122.601 329.888 122.377 329.664C122.137 329.44 122.025 329.12 122.025 328.688C121.401 329.632 120.505 330.096 119.321 330.096C118.393 330.096 117.657 329.888 117.113 329.456C116.553 329.04 116.281 328.448 116.281 327.696C116.281 326.864 116.569 326.208 117.177 325.76C117.769 325.312 118.633 325.072 119.785 325.072H121.849V324.576C121.849 324.128 121.689 323.76 121.369 323.504C121.049 323.248 120.601 323.104 120.041 323.104C119.529 323.104 119.113 323.216 118.793 323.44C118.473 323.664 118.281 323.952 118.217 324.304H116.521C116.601 323.488 116.969 322.848 117.609 322.4C118.249 321.952 119.081 321.712 120.121 321.712C121.209 321.712 122.057 321.968 122.665 322.48C123.257 322.992 123.561 323.728 123.561 324.688V327.92C123.561 328.304 123.737 328.496 124.105 328.496H124.441ZM121.849 326.352H119.705C119.161 326.352 118.761 326.464 118.473 326.672C118.185 326.88 118.041 327.184 118.041 327.584C118.041 327.936 118.169 328.224 118.441 328.432C118.713 328.656 119.081 328.752 119.561 328.752C120.265 328.752 120.825 328.56 121.225 328.176C121.625 327.792 121.833 327.28 121.849 326.64V326.352ZM132.07 322.608C132.678 323.216 132.998 324.176 132.998 325.488V330H131.254V325.584C131.254 324.816 131.078 324.224 130.758 323.808C130.422 323.408 129.942 323.2 129.302 323.2C128.614 323.2 128.07 323.44 127.686 323.92C127.302 324.4 127.11 325.04 127.11 325.872V330H125.382V321.808H126.886L127.078 322.88C127.686 322.112 128.566 321.712 129.702 321.712C130.662 321.712 131.462 322.016 132.07 322.608Z" fill="#515251"/>
<path d="M247.5 322L244 326L240.5 322" stroke="#515251" stroke-width="1.6" stroke-linecap="round" stroke-linejoin="round"/>
<path d="M272 351.2H0V352.8H272V351.2Z" fill="#E7E8E7" mask="url(#path-32-inside-6_1_1322)"/>
<rect width="272" height="56" transform="translate(0 352)" fill="white"/>
<path d="M38.0196 371.717C37.4223 371.614 36.8174 371.561 36.2113 371.558C34.1433 371.557 32.1184 372.15 30.378 373.267C28.6331 372.164 26.6085 371.586 24.5446 371.6C23.9385 371.603 23.3336 371.655 22.7363 371.758C22.5406 371.792 22.3634 371.895 22.2366 372.047C22.1098 372.2 22.0417 372.393 22.0446 372.592V382.592C22.0428 382.714 22.0681 382.835 22.1185 382.947C22.1689 383.059 22.2433 383.158 22.3364 383.237C22.4295 383.317 22.539 383.375 22.6571 383.407C22.7752 383.44 22.899 383.446 23.0196 383.425C24.2138 383.218 25.4373 383.253 26.618 383.526C27.7987 383.799 28.9128 384.306 29.8946 385.017L29.9946 385.075H30.0863C30.1787 385.114 30.2778 385.133 30.378 385.133C30.4781 385.133 30.5772 385.114 30.6696 385.075H30.7613L30.8613 385.017C31.8363 384.29 32.9471 383.767 34.1281 383.478C35.309 383.189 36.536 383.14 37.7363 383.333C37.857 383.354 37.9807 383.348 38.0988 383.316C38.2169 383.283 38.3264 383.225 38.4195 383.146C38.5126 383.066 38.587 382.967 38.6374 382.855C38.6879 382.744 38.7131 382.622 38.7113 382.5V372.5C38.7026 372.31 38.6293 372.129 38.5035 371.986C38.3777 371.844 38.207 371.749 38.0196 371.717ZM29.5446 382.792C28.0029 381.981 26.2867 381.557 24.5446 381.558C24.2696 381.558 23.9946 381.558 23.7113 381.558V373.225C23.9888 373.209 24.2671 373.209 24.5446 373.225C26.3224 373.223 28.0615 373.745 29.5446 374.725V382.792ZM37.0446 381.592C36.7613 381.592 36.4863 381.592 36.2113 381.592C34.4692 381.591 32.7531 382.014 31.2113 382.825V374.725C32.6944 373.745 34.4335 373.223 36.2113 373.225C36.4888 373.209 36.7671 373.209 37.0446 373.225V381.592ZM38.0196 385.05C37.4223 384.947 36.8174 384.894 36.2113 384.892C34.1433 384.89 32.1184 385.483 30.378 386.6C28.6376 385.483 26.6127 384.89 24.5446 384.892C23.9385 384.894 23.3336 384.947 22.7363 385.05C22.6278 385.067 22.5238 385.106 22.4303 385.163C22.3367 385.221 22.2555 385.296 22.1912 385.385C22.1269 385.474 22.0809 385.575 22.0557 385.682C22.0306 385.789 22.0268 385.9 22.0446 386.008C22.087 386.225 22.2134 386.416 22.3961 386.539C22.5789 386.662 22.8031 386.708 23.0196 386.667C24.2138 386.46 25.4373 386.494 26.618 386.768C27.7987 387.041 28.9128 387.548 29.8946 388.258C30.0358 388.359 30.2047 388.413 30.378 388.413C30.5512 388.413 30.7202 388.359 30.8613 388.258C31.8431 387.548 32.9572 387.041 34.1379 386.768C35.3186 386.494 36.5421 386.46 37.7363 386.667C37.9528 386.708 38.177 386.662 38.3598 386.539C38.5426 386.416 38.6689 386.225 38.7113 386.008C38.7291 385.9 38.7254 385.789 38.7002 385.682C38.6751 385.575 38.629 385.474 38.5647 385.385C38.5005 385.296 38.4192 385.221 38.3257 385.163C38.2321 385.106 38.1281 385.067 38.0196 385.05Z" fill="#515251"/>
<path d="M57.5139 374.8C58.7299 374.8 59.6899 375.056 60.3619 375.568C61.0339 376.08 61.3859 376.8 61.3859 377.712C61.3859 378.384 61.1939 378.944 60.8419 379.376C60.4899 379.808 59.9779 380.096 59.3059 380.24C60.9699 380.528 61.8179 381.408 61.8179 382.88C61.8179 383.856 61.4499 384.624 60.7299 385.168C60.0099 385.728 58.9859 386 57.6579 386H53.4019V374.8H57.5139ZM55.2419 379.552H57.5619C58.1859 379.552 58.6659 379.408 59.0179 379.12C59.3699 378.832 59.5459 378.448 59.5459 377.936C59.5459 377.44 59.3699 377.056 59.0179 376.768C58.6659 376.48 58.1859 376.336 57.5619 376.336H55.2419V379.552ZM55.2419 384.448H57.6739C58.3939 384.448 58.9539 384.304 59.3379 384.016C59.7219 383.728 59.9299 383.312 59.9299 382.784C59.9299 382.24 59.7219 381.824 59.3379 381.52C58.9379 381.232 58.3779 381.072 57.6739 381.072H55.2419V384.448ZM65.0309 385.584C64.3909 385.232 63.9109 384.752 63.5589 384.112C63.2069 383.472 63.0469 382.736 63.0469 381.904C63.0469 381.088 63.2069 380.368 63.5589 379.728C63.9109 379.088 64.3909 378.592 65.0309 378.24C65.6709 377.888 66.3909 377.712 67.2229 377.712C68.0389 377.712 68.7589 377.888 69.3989 378.24C70.0389 378.592 70.5189 379.088 70.8709 379.728C71.2229 380.368 71.3989 381.088 71.3989 381.904C71.3989 382.736 71.2229 383.472 70.8709 384.112C70.5189 384.752 70.0389 385.232 69.3989 385.584C68.7589 385.936 68.0389 386.096 67.2229 386.096C66.3909 386.096 65.6709 385.936 65.0309 385.584ZM68.9669 383.872C69.4149 383.36 69.6389 382.704 69.6389 381.904C69.6389 381.104 69.4149 380.464 68.9669 379.952C68.5189 379.44 67.9429 379.184 67.2229 379.184C66.4869 379.184 65.9109 379.44 65.4789 379.952C65.0309 380.464 64.8229 381.104 64.8229 381.904C64.8229 382.704 65.0309 383.36 65.4789 383.872C65.9109 384.384 66.4869 384.624 67.2229 384.624C67.9429 384.624 68.5189 384.384 68.9669 383.872ZM74.4684 385.584C73.8284 385.232 73.3484 384.752 72.9964 384.112C72.6444 383.472 72.4844 382.736 72.4844 381.904C72.4844 381.088 72.6444 380.368 72.9964 379.728C73.3484 379.088 73.8284 378.592 74.4684 378.24C75.1084 377.888 75.8284 377.712 76.6604 377.712C77.4764 377.712 78.1964 377.888 78.8364 378.24C79.4764 378.592 79.9564 379.088 80.3084 379.728C80.6604 380.368 80.8364 381.088 80.8364 381.904C80.8364 382.736 80.6604 383.472 80.3084 384.112C79.9564 384.752 79.4764 385.232 78.8364 385.584C78.1964 385.936 77.4764 386.096 76.6604 386.096C75.8284 386.096 75.1084 385.936 74.4684 385.584ZM78.4044 383.872C78.8524 383.36 79.0764 382.704 79.0764 381.904C79.0764 381.104 78.8524 380.464 78.4044 379.952C77.9564 379.44 77.3804 379.184 76.6604 379.184C75.9244 379.184 75.3484 379.44 74.9164 379.952C74.4684 380.464 74.2604 381.104 74.2604 381.904C74.2604 382.704 74.4684 383.36 74.9164 383.872C75.3484 384.384 75.9244 384.624 76.6604 384.624C77.3804 384.624 77.9564 384.384 78.4044 383.872ZM82.2259 374.8H83.9539V381.808L87.6979 377.808H89.6979L86.6419 381.104L89.8899 386H87.8419L85.4099 382.368L83.9539 383.904V386H82.2259V374.8ZM95.0894 374.8H96.9294V380.576L102.065 374.8H104.305L100.193 379.472L104.609 386H102.385L98.8814 380.88L96.9294 383.072V386H95.0894V374.8ZM105.355 379.712C105.691 379.072 106.155 378.592 106.763 378.24C107.371 377.888 108.059 377.712 108.843 377.712C109.627 377.712 110.315 377.872 110.923 378.192C111.531 378.512 111.995 378.976 112.347 379.552C112.699 380.144 112.875 380.832 112.891 381.616C112.891 381.84 112.875 382.048 112.843 382.272H106.667V382.368C106.699 383.088 106.923 383.648 107.339 384.064C107.739 384.48 108.283 384.688 108.955 384.688C109.483 384.688 109.931 384.576 110.299 384.32C110.651 384.064 110.891 383.712 111.019 383.248H112.747C112.587 384.08 112.187 384.768 111.531 385.296C110.875 385.84 110.059 386.096 109.083 386.096C108.219 386.096 107.483 385.936 106.843 385.584C106.203 385.232 105.723 384.752 105.371 384.112C105.019 383.488 104.859 382.752 104.859 381.92C104.859 381.088 105.019 380.352 105.355 379.712ZM111.131 381.008C111.051 380.416 110.811 379.952 110.411 379.616C110.011 379.28 109.515 379.104 108.907 379.104C108.331 379.104 107.851 379.28 107.435 379.632C107.019 379.984 106.795 380.432 106.731 381.008H111.131ZM114.48 379.712C114.816 379.072 115.28 378.592 115.888 378.24C116.496 377.888 117.184 377.712 117.968 377.712C118.752 377.712 119.44 377.872 120.048 378.192C120.656 378.512 121.12 378.976 121.472 379.552C121.824 380.144 122 380.832 122.016 381.616C122.016 381.84 122 382.048 121.968 382.272H115.792V382.368C115.824 383.088 116.048 383.648 116.464 384.064C116.864 384.48 117.408 384.688 118.08 384.688C118.608 384.688 119.056 384.576 119.424 384.32C119.776 384.064 120.016 383.712 120.144 383.248H121.872C121.712 384.08 121.312 384.768 120.656 385.296C120 385.84 119.184 386.096 118.208 386.096C117.344 386.096 116.608 385.936 115.968 385.584C115.328 385.232 114.848 384.752 114.496 384.112C114.144 383.488 113.984 382.752 113.984 381.92C113.984 381.088 114.144 380.352 114.48 379.712ZM120.256 381.008C120.176 380.416 119.936 379.952 119.536 379.616C119.136 379.28 118.64 379.104 118.032 379.104C117.456 379.104 116.976 379.28 116.56 379.632C116.144 379.984 115.92 380.432 115.856 381.008H120.256ZM129.797 378.224C130.373 378.56 130.837 379.04 131.173 379.68C131.493 380.32 131.669 381.056 131.669 381.904C131.669 382.736 131.493 383.472 131.173 384.112C130.837 384.752 130.373 385.232 129.797 385.584C129.205 385.936 128.533 386.096 127.797 386.096C127.189 386.096 126.661 385.984 126.213 385.76C125.765 385.536 125.397 385.232 125.141 384.848V389.2H123.413V377.808H124.917L125.125 379.024C125.781 378.16 126.677 377.712 127.797 377.712C128.533 377.712 129.205 377.888 129.797 378.224ZM129.237 383.872C129.685 383.36 129.909 382.704 129.909 381.904C129.909 381.104 129.685 380.448 129.237 379.936C128.789 379.44 128.213 379.184 127.509 379.184C126.789 379.184 126.213 379.44 125.781 379.936C125.333 380.432 125.125 381.072 125.125 381.872C125.125 382.704 125.333 383.36 125.781 383.872C126.213 384.384 126.789 384.64 127.509 384.64C128.213 384.64 128.789 384.384 129.237 383.872ZM134.67 374.832C134.862 375.024 134.974 375.28 134.974 375.568C134.974 375.872 134.862 376.128 134.67 376.32C134.462 376.512 134.206 376.608 133.918 376.608C133.614 376.608 133.358 376.512 133.166 376.32C132.958 376.128 132.862 375.872 132.862 375.568C132.862 375.28 132.958 375.024 133.166 374.832C133.358 374.64 133.614 374.528 133.918 374.528C134.206 374.528 134.462 374.64 134.67 374.832ZM133.054 377.808H134.782V386H133.054V377.808ZM143.164 378.608C143.772 379.216 144.092 380.176 144.092 381.488V386H142.348V381.584C142.348 380.816 142.172 380.224 141.852 379.808C141.516 379.408 141.036 379.2 140.396 379.2C139.708 379.2 139.164 379.44 138.78 379.92C138.396 380.4 138.204 381.04 138.204 381.872V386H136.476V377.808H137.98L138.172 378.88C138.78 378.112 139.66 377.712 140.796 377.712C141.756 377.712 142.556 378.016 143.164 378.608ZM153.615 377.808V385.664C153.615 386.816 153.263 387.712 152.591 388.352C151.903 388.992 150.847 389.296 149.423 389.296C148.303 389.296 147.407 389.056 146.719 388.56C146.015 388.064 145.631 387.36 145.567 386.448H147.327C147.423 386.912 147.679 387.264 148.063 387.52C148.447 387.776 148.943 387.888 149.551 387.888C151.119 387.888 151.903 387.136 151.903 385.6V384.688C151.295 385.584 150.415 386.032 149.231 386.032C148.479 386.032 147.807 385.872 147.231 385.536C146.639 385.2 146.175 384.72 145.855 384.096C145.519 383.472 145.359 382.736 145.359 381.872C145.359 381.056 145.519 380.336 145.855 379.696C146.191 379.072 146.655 378.592 147.247 378.24C147.823 377.888 148.495 377.712 149.231 377.712C149.839 377.712 150.383 377.84 150.831 378.08C151.279 378.336 151.631 378.672 151.919 379.088L152.111 377.808H153.615ZM151.247 383.84C151.679 383.344 151.903 382.704 151.903 381.904C151.903 381.104 151.679 380.448 151.247 379.936C150.799 379.424 150.223 379.168 149.519 379.168C148.799 379.168 148.223 379.424 147.791 379.92C147.343 380.432 147.135 381.072 147.135 381.872C147.135 382.672 147.343 383.328 147.791 383.824C148.223 384.336 148.799 384.576 149.519 384.576C150.223 384.576 150.799 384.336 151.247 383.84Z" fill="#515251"/>
<path d="M247.5 378L244 382L240.5 378" stroke="#515251" stroke-width="1.6" stroke-linecap="round" stroke-linejoin="round"/>
<line x1="18.189" y1="431.5" x2="253.811" y2="431.5" stroke="#E7E8E7"/>
<mask id="path-43-inside-7_1_1322" fill="white">
<path d="M0 456H272V512H0V456Z"/>
</mask>
<path d="M0 456H272V512H0V456Z" fill="white"/>
<path d="M36.578 484.833C36.3946 484.833 36.203 484.775 36.0196 484.733C35.6484 484.652 35.2835 484.543 34.928 484.408C34.5414 484.268 34.1164 484.275 33.7349 484.429C33.3533 484.583 33.0422 484.872 32.8613 485.242L32.678 485.617C31.8663 485.165 31.1204 484.604 30.4613 483.95C29.8069 483.291 29.2461 482.545 28.7946 481.733L29.1446 481.5C29.5141 481.319 29.8036 481.008 29.9574 480.626C30.1113 480.245 30.1186 479.82 29.978 479.433C29.8456 479.077 29.7371 478.712 29.653 478.342C29.6113 478.158 29.578 477.967 29.553 477.775C29.4518 477.188 29.1443 476.656 28.686 476.276C28.2276 475.896 27.6485 475.691 27.053 475.7H24.553C24.1938 475.697 23.8382 475.771 23.5102 475.917C23.1823 476.064 22.8897 476.279 22.6525 476.549C22.4152 476.818 22.2389 477.136 22.1354 477.48C22.032 477.824 22.0039 478.186 22.053 478.542C22.4969 482.033 24.0913 485.277 26.5843 487.761C29.0773 490.245 32.3269 491.827 35.8196 492.258H36.1363C36.7508 492.259 37.3441 492.034 37.803 491.625C38.0666 491.389 38.2772 491.1 38.4208 490.777C38.5645 490.454 38.6379 490.104 38.6363 489.75V487.25C38.6261 486.671 38.4153 486.114 38.0399 485.673C37.6645 485.232 37.1478 484.936 36.578 484.833ZM36.9946 489.833C36.9945 489.952 36.9691 490.069 36.9203 490.176C36.8714 490.284 36.8002 490.38 36.7113 490.458C36.6182 490.539 36.5093 490.599 36.3916 490.635C36.2739 490.671 36.1501 490.681 36.028 490.667C32.907 490.267 30.0081 488.839 27.7885 486.609C25.5689 484.378 24.155 481.473 23.7696 478.35C23.7564 478.228 23.768 478.104 23.8038 477.987C23.8396 477.87 23.8988 477.761 23.978 477.667C24.056 477.578 24.1522 477.507 24.2599 477.458C24.3677 477.409 24.4846 477.384 24.603 477.383H27.103C27.2967 477.379 27.486 477.442 27.6381 477.563C27.7902 477.683 27.8956 477.852 27.9363 478.042C27.9696 478.269 28.0113 478.494 28.0613 478.717C28.1576 479.156 28.2857 479.588 28.4446 480.008L27.278 480.55C27.1782 480.596 27.0885 480.661 27.0139 480.741C26.9394 480.822 26.8815 480.916 26.8435 481.019C26.8056 481.122 26.7883 481.232 26.7928 481.341C26.7973 481.451 26.8234 481.559 26.8696 481.658C28.069 484.227 30.134 486.292 32.703 487.492C32.9058 487.575 33.1334 487.575 33.3363 487.492C33.4402 487.455 33.5357 487.397 33.6173 487.323C33.6988 487.248 33.7648 487.158 33.8113 487.058L34.328 485.892C34.7588 486.046 35.1984 486.174 35.6446 486.275C35.8668 486.325 36.0918 486.367 36.3196 486.4C36.5091 486.441 36.6786 486.546 36.7987 486.698C36.9189 486.85 36.9823 487.04 36.978 487.233L36.9946 489.833Z" fill="#515251"/>
<path d="M54.7939 486.352C54.8419 487.024 55.1139 487.552 55.5939 487.952C56.0739 488.352 56.7139 488.544 57.4979 488.544C58.1699 488.544 58.7299 488.4 59.1459 488.112C59.5619 487.824 59.7859 487.408 59.7859 486.88C59.7859 486.512 59.6579 486.224 59.4339 486C59.2099 485.776 58.8899 485.616 58.5059 485.488C58.1059 485.376 57.5459 485.248 56.8419 485.12C56.1059 484.992 55.4819 484.832 54.9699 484.624C54.4579 484.416 54.0259 484.096 53.7059 483.664C53.3859 483.248 53.2259 482.688 53.2259 481.984C53.2259 481.344 53.3859 480.784 53.7219 480.272C54.0579 479.776 54.5219 479.392 55.1299 479.104C55.7379 478.832 56.4259 478.688 57.2099 478.688C58.0099 478.688 58.7139 478.848 59.3539 479.136C59.9779 479.44 60.4739 479.856 60.8419 480.368C61.1939 480.896 61.4019 481.488 61.4339 482.16H59.6259C59.5619 481.584 59.3059 481.12 58.8739 480.768C58.4259 480.416 57.8819 480.24 57.2099 480.24C56.5539 480.24 56.0259 480.384 55.6419 480.672C55.2579 480.96 55.0659 481.344 55.0659 481.856C55.0659 482.224 55.1779 482.512 55.4019 482.72C55.6259 482.944 55.9459 483.104 56.3299 483.2C56.7139 483.312 57.2579 483.424 57.9779 483.552C58.6979 483.68 59.3219 483.856 59.8499 484.064C60.3619 484.288 60.7939 484.592 61.1299 485.008C61.4499 485.424 61.6259 485.984 61.6259 486.656C61.6259 487.328 61.4499 487.92 61.0979 488.432C60.7459 488.96 60.2499 489.376 59.6259 489.664C58.9859 489.952 58.2819 490.096 57.4819 490.096C56.5859 490.096 55.8179 489.936 55.1459 489.616C54.4739 489.296 53.9459 488.864 53.5619 488.288C53.1779 487.712 52.9859 487.056 52.9859 486.32L54.7939 486.352ZM70.4137 481.808V490H68.8937L68.7017 488.96C68.0777 489.728 67.2297 490.096 66.1737 490.096C65.2137 490.096 64.4297 489.808 63.8377 489.2C63.2297 488.608 62.9417 487.648 62.9417 486.32V481.808H64.6697V486.144C64.6697 486.944 64.8297 487.552 65.1497 487.968C65.4697 488.384 65.9337 488.592 66.5737 488.592C67.2297 488.592 67.7417 488.352 68.1257 487.872C68.4937 487.392 68.6857 486.72 68.6857 485.872V481.808H70.4137ZM78.5006 482.224C79.0766 482.56 79.5406 483.04 79.8766 483.68C80.1966 484.32 80.3726 485.056 80.3726 485.904C80.3726 486.736 80.1966 487.472 79.8766 488.112C79.5406 488.752 79.0766 489.232 78.5006 489.584C77.9086 489.936 77.2366 490.096 76.5006 490.096C75.8926 490.096 75.3646 489.984 74.9166 489.76C74.4686 489.536 74.1006 489.232 73.8446 488.848V493.2H72.1166V481.808H73.6206L73.8286 483.024C74.4846 482.16 75.3806 481.712 76.5006 481.712C77.2366 481.712 77.9086 481.888 78.5006 482.224ZM77.9406 487.872C78.3886 487.36 78.6126 486.704 78.6126 485.904C78.6126 485.104 78.3886 484.448 77.9406 483.936C77.4926 483.44 76.9166 483.184 76.2126 483.184C75.4926 483.184 74.9166 483.44 74.4846 483.936C74.0366 484.432 73.8286 485.072 73.8286 485.872C73.8286 486.704 74.0366 487.36 74.4846 487.872C74.9166 488.384 75.4926 488.64 76.2126 488.64C76.9166 488.64 77.4926 488.384 77.9406 487.872ZM88.1412 482.224C88.7172 482.56 89.1812 483.04 89.5172 483.68C89.8372 484.32 90.0132 485.056 90.0132 485.904C90.0132 486.736 89.8372 487.472 89.5172 488.112C89.1812 488.752 88.7172 489.232 88.1412 489.584C87.5492 489.936 86.8772 490.096 86.1412 490.096C85.5332 490.096 85.0052 489.984 84.5572 489.76C84.1092 489.536 83.7412 489.232 83.4852 488.848V493.2H81.7572V481.808H83.2612L83.4692 483.024C84.1252 482.16 85.0212 481.712 86.1412 481.712C86.8772 481.712 87.5492 481.888 88.1412 482.224ZM87.5812 487.872C88.0292 487.36 88.2532 486.704 88.2532 485.904C88.2532 485.104 88.0292 484.448 87.5812 483.936C87.1332 483.44 86.5572 483.184 85.8532 483.184C85.1332 483.184 84.5572 483.44 84.1252 483.936C83.6772 484.432 83.4692 485.072 83.4692 485.872C83.4692 486.704 83.6772 487.36 84.1252 487.872C84.5572 488.384 85.1332 488.64 85.8532 488.64C86.5572 488.64 87.1332 488.384 87.5812 487.872ZM93.0778 489.584C92.4378 489.232 91.9578 488.752 91.6058 488.112C91.2538 487.472 91.0938 486.736 91.0938 485.904C91.0938 485.088 91.2538 484.368 91.6058 483.728C91.9578 483.088 92.4378 482.592 93.0778 482.24C93.7178 481.888 94.4378 481.712 95.2698 481.712C96.0858 481.712 96.8058 481.888 97.4458 482.24C98.0858 482.592 98.5658 483.088 98.9178 483.728C99.2698 484.368 99.4458 485.088 99.4458 485.904C99.4458 486.736 99.2698 487.472 98.9178 488.112C98.5658 488.752 98.0858 489.232 97.4458 489.584C96.8058 489.936 96.0858 490.096 95.2698 490.096C94.4378 490.096 93.7178 489.936 93.0778 489.584ZM97.0138 487.872C97.4618 487.36 97.6858 486.704 97.6858 485.904C97.6858 485.104 97.4618 484.464 97.0138 483.952C96.5658 483.44 95.9898 483.184 95.2698 483.184C94.5338 483.184 93.9578 483.44 93.5258 483.952C93.0778 484.464 92.8698 485.104 92.8698 485.904C92.8698 486.704 93.0778 487.36 93.5258 487.872C93.9578 488.384 94.5338 488.624 95.2698 488.624C95.9898 488.624 96.5658 488.384 97.0138 487.872ZM105.363 481.808V483.424H104.595C103.875 483.424 103.363 483.664 103.043 484.128C102.723 484.592 102.563 485.184 102.563 485.888V490H100.835V481.808H102.371L102.563 483.04C102.787 482.656 103.091 482.368 103.475 482.144C103.843 481.92 104.339 481.808 104.979 481.808H105.363ZM106.46 479.52H108.188V481.808H110.172V483.328H108.188V487.6C108.188 487.92 108.252 488.16 108.38 488.288C108.508 488.416 108.716 488.48 109.036 488.48H110.348V490H108.684C107.9 490 107.34 489.824 106.988 489.456C106.636 489.104 106.46 488.544 106.46 487.776V479.52Z" fill="#515251"/>
<path d="M272 511.2H0V512.8H272V511.2Z" fill="#E7E8E7" mask="url(#path-43-inside-7_1_1322)"/>
<rect width="272" height="56" transform="translate(0 512)" fill="white"/>
<path d="M28.0863 548.333L27.7529 545.667C27.5724 545.597 27.4021 545.514 27.2421 545.417C27.0821 545.319 26.926 545.215 26.7738 545.104L24.2946 546.146L22.0029 542.188L24.1488 540.563C24.1349 540.465 24.1279 540.371 24.1279 540.281V539.719C24.1279 539.629 24.1349 539.535 24.1488 539.438L22.0029 537.813L24.2946 533.854L26.7738 534.896C26.9265 534.785 27.0863 534.681 27.2529 534.583C27.4196 534.486 27.5863 534.403 27.7529 534.333L28.0863 531.667H32.6696L33.0029 534.333C33.1835 534.403 33.3538 534.486 33.5138 534.583C33.6738 534.681 33.8299 534.785 33.9821 534.896L36.4613 533.854L38.7529 537.813L36.6071 539.438C36.621 539.535 36.6279 539.629 36.6279 539.719V540.281C36.6279 540.371 36.614 540.465 36.5863 540.563L38.7321 542.188L36.4404 546.146L33.9821 545.104C33.8293 545.215 33.6696 545.319 33.5029 545.417C33.3363 545.514 33.1696 545.597 33.0029 545.667L32.6696 548.333H28.0863ZM30.4196 542.917C31.2252 542.917 31.9127 542.632 32.4821 542.063C33.0515 541.493 33.3363 540.806 33.3363 540C33.3363 539.194 33.0515 538.507 32.4821 537.938C31.9127 537.368 31.2252 537.083 30.4196 537.083C29.6002 537.083 28.909 537.368 28.3463 537.938C27.7835 538.507 27.5024 539.194 27.5029 540C27.5029 540.806 27.784 541.493 28.3463 542.063C28.9085 542.632 29.5996 542.917 30.4196 542.917ZM30.4196 541.25C30.0724 541.25 29.7771 541.128 29.5338 540.885C29.2904 540.642 29.169 540.347 29.1696 540C29.1696 539.653 29.2913 539.358 29.5346 539.114C29.7779 538.871 30.0729 538.749 30.4196 538.75C30.7668 538.75 31.0621 538.872 31.3054 539.115C31.5488 539.358 31.6702 539.653 31.6696 540C31.6696 540.347 31.5479 540.643 31.3046 540.886C31.0613 541.129 30.7663 541.251 30.4196 541.25ZM29.5446 546.667H31.1904L31.4821 544.458C31.9127 544.347 32.3121 544.184 32.6804 543.968C33.0488 543.753 33.3854 543.493 33.6904 543.188L35.7529 544.042L36.5654 542.625L34.7738 541.271C34.8432 541.076 34.8918 540.872 34.9196 540.657C34.9474 540.442 34.9613 540.223 34.9613 540C34.9613 539.778 34.9474 539.559 34.9196 539.344C34.8918 539.129 34.8432 538.924 34.7738 538.729L36.5654 537.375L35.7529 535.958L33.6904 536.833C33.3849 536.514 33.0482 536.247 32.6804 536.032C32.3127 535.817 31.9132 535.653 31.4821 535.542L31.2113 533.333H29.5654L29.2738 535.542C28.8432 535.653 28.444 535.816 28.0763 536.032C27.7085 536.247 27.3715 536.508 27.0654 536.813L25.0029 535.958L24.1904 537.375L25.9821 538.708C25.9127 538.917 25.864 539.125 25.8363 539.333C25.8085 539.542 25.7946 539.764 25.7946 540C25.7946 540.222 25.8085 540.438 25.8363 540.646C25.864 540.854 25.9127 541.063 25.9821 541.271L24.1904 542.625L25.0029 544.042L27.0654 543.167C27.371 543.486 27.7079 543.754 28.0763 543.969C28.4446 544.185 28.8438 544.348 29.2738 544.458L29.5446 546.667Z" fill="#515251"/>
<path d="M54.7939 542.352C54.8419 543.024 55.1139 543.552 55.5939 543.952C56.0739 544.352 56.7139 544.544 57.4979 544.544C58.1699 544.544 58.7299 544.4 59.1459 544.112C59.5619 543.824 59.7859 543.408 59.7859 542.88C59.7859 542.512 59.6579 542.224 59.4339 542C59.2099 541.776 58.8899 541.616 58.5059 541.488C58.1059 541.376 57.5459 541.248 56.8419 541.12C56.1059 540.992 55.4819 540.832 54.9699 540.624C54.4579 540.416 54.0259 540.096 53.7059 539.664C53.3859 539.248 53.2259 538.688 53.2259 537.984C53.2259 537.344 53.3859 536.784 53.7219 536.272C54.0579 535.776 54.5219 535.392 55.1299 535.104C55.7379 534.832 56.4259 534.688 57.2099 534.688C58.0099 534.688 58.7139 534.848 59.3539 535.136C59.9779 535.44 60.4739 535.856 60.8419 536.368C61.1939 536.896 61.4019 537.488 61.4339 538.16H59.6259C59.5619 537.584 59.3059 537.12 58.8739 536.768C58.4259 536.416 57.8819 536.24 57.2099 536.24C56.5539 536.24 56.0259 536.384 55.6419 536.672C55.2579 536.96 55.0659 537.344 55.0659 537.856C55.0659 538.224 55.1779 538.512 55.4019 538.72C55.6259 538.944 55.9459 539.104 56.3299 539.2C56.7139 539.312 57.2579 539.424 57.9779 539.552C58.6979 539.68 59.3219 539.856 59.8499 540.064C60.3619 540.288 60.7939 540.592 61.1299 541.008C61.4499 541.424 61.6259 541.984 61.6259 542.656C61.6259 543.328 61.4499 543.92 61.0979 544.432C60.7459 544.96 60.2499 545.376 59.6259 545.664C58.9859 545.952 58.2819 546.096 57.4819 546.096C56.5859 546.096 55.8179 545.936 55.1459 545.616C54.4739 545.296 53.9459 544.864 53.5619 544.288C53.1779 543.712 52.9859 543.056 52.9859 542.32L54.7939 542.352ZM63.2617 539.712C63.5977 539.072 64.0617 538.592 64.6697 538.24C65.2777 537.888 65.9657 537.712 66.7497 537.712C67.5337 537.712 68.2217 537.872 68.8297 538.192C69.4377 538.512 69.9017 538.976 70.2537 539.552C70.6057 540.144 70.7817 540.832 70.7977 541.616C70.7977 541.84 70.7817 542.048 70.7497 542.272H64.5737V542.368C64.6057 543.088 64.8297 543.648 65.2457 544.064C65.6457 544.48 66.1897 544.688 66.8617 544.688C67.3897 544.688 67.8377 544.576 68.2057 544.32C68.5577 544.064 68.7977 543.712 68.9257 543.248H70.6537C70.4937 544.08 70.0937 544.768 69.4377 545.296C68.7817 545.84 67.9657 546.096 66.9897 546.096C66.1257 546.096 65.3897 545.936 64.7497 545.584C64.1097 545.232 63.6297 544.752 63.2777 544.112C62.9257 543.488 62.7657 542.752 62.7657 541.92C62.7657 541.088 62.9257 540.352 63.2617 539.712ZM69.0377 541.008C68.9577 540.416 68.7177 539.952 68.3177 539.616C67.9177 539.28 67.4217 539.104 66.8137 539.104C66.2377 539.104 65.7577 539.28 65.3417 539.632C64.9257 539.984 64.7017 540.432 64.6377 541.008H69.0377ZM72.6602 539.328H71.2362V537.808H72.6602V535.52H74.4042V537.808H76.3722V539.328H74.4042V543.6C74.4042 543.92 74.4682 544.16 74.5962 544.288C74.7242 544.416 74.9322 544.48 75.2522 544.48H76.5642V546H74.9002C74.1162 546 73.5402 545.824 73.1882 545.456C72.8362 545.104 72.6602 544.544 72.6602 543.776V539.328ZM77.4916 535.52H79.2196V537.808H81.2036V539.328H79.2196V543.6C79.2196 543.92 79.2836 544.16 79.4116 544.288C79.5396 544.416 79.7476 544.48 80.0676 544.48H81.3796V546H79.7156C78.9316 546 78.3716 545.824 78.0196 545.456C77.6676 545.104 77.4916 544.544 77.4916 543.776V535.52ZM83.9357 534.832C84.1277 535.024 84.2397 535.28 84.2397 535.568C84.2397 535.872 84.1277 536.128 83.9357 536.32C83.7277 536.512 83.4717 536.608 83.1837 536.608C82.8797 536.608 82.6237 536.512 82.4317 536.32C82.2237 536.128 82.1277 535.872 82.1277 535.568C82.1277 535.28 82.2237 535.024 82.4317 534.832C82.6237 534.64 82.8797 534.528 83.1837 534.528C83.4717 534.528 83.7277 534.64 83.9357 534.832ZM82.3197 537.808H84.0477V546H82.3197V537.808ZM92.4296 538.608C93.0376 539.216 93.3576 540.176 93.3576 541.488V546H91.6136V541.584C91.6136 540.816 91.4376 540.224 91.1176 539.808C90.7816 539.408 90.3016 539.2 89.6616 539.2C88.9736 539.2 88.4296 539.44 88.0456 539.92C87.6616 540.4 87.4696 541.04 87.4696 541.872V546H85.7416V537.808H87.2456L87.4376 538.88C88.0456 538.112 88.9256 537.712 90.0616 537.712C91.0216 537.712 91.8216 538.016 92.4296 538.608ZM102.881 537.808V545.664C102.881 546.816 102.529 547.712 101.857 548.352C101.169 548.992 100.113 549.296 98.6891 549.296C97.5691 549.296 96.6731 549.056 95.9851 548.56C95.2811 548.064 94.8971 547.36 94.8331 546.448H96.5931C96.6891 546.912 96.9451 547.264 97.3291 547.52C97.7131 547.776 98.2091 547.888 98.8171 547.888C100.385 547.888 101.169 547.136 101.169 545.6V544.688C100.561 545.584 99.6811 546.032 98.4971 546.032C97.7451 546.032 97.0731 545.872 96.4971 545.536C95.9051 545.2 95.4411 544.72 95.1211 544.096C94.7851 543.472 94.6251 542.736 94.6251 541.872C94.6251 541.056 94.7851 540.336 95.1211 539.696C95.4571 539.072 95.9211 538.592 96.5131 538.24C97.0891 537.888 97.7611 537.712 98.4971 537.712C99.1051 537.712 99.6491 537.84 100.097 538.08C100.545 538.336 100.897 538.672 101.185 539.088L101.377 537.808H102.881ZM100.513 543.84C100.945 543.344 101.169 542.704 101.169 541.904C101.169 541.104 100.945 540.448 100.513 539.936C100.065 539.424 99.4891 539.168 98.7851 539.168C98.0651 539.168 97.4891 539.424 97.0571 539.92C96.6091 540.432 96.4011 541.072 96.4011 541.872C96.4011 542.672 96.6091 543.328 97.0571 543.824C97.4891 544.336 98.0651 544.576 98.7851 544.576C99.4891 544.576 100.065 544.336 100.513 543.84ZM105.946 543.296C105.978 543.728 106.17 544.08 106.538 544.352C106.906 544.624 107.386 544.752 107.978 544.752C108.49 544.752 108.922 544.656 109.242 544.464C109.562 544.272 109.738 544 109.738 543.664C109.738 543.392 109.658 543.184 109.514 543.04C109.354 542.912 109.162 542.816 108.906 542.752C108.65 542.688 108.266 542.624 107.754 542.56C107.034 542.48 106.442 542.368 105.978 542.224C105.514 542.08 105.146 541.856 104.858 541.536C104.57 541.216 104.442 540.8 104.442 540.256C104.442 539.76 104.57 539.312 104.858 538.928C105.146 538.544 105.53 538.24 106.026 538.016C106.522 537.808 107.082 537.696 107.722 537.696C108.746 537.696 109.594 537.936 110.234 538.384C110.874 538.848 111.226 539.488 111.29 540.32H109.61C109.562 539.952 109.37 539.648 109.05 539.408C108.714 539.168 108.298 539.04 107.802 539.04C107.29 539.04 106.89 539.136 106.586 539.328C106.266 539.52 106.122 539.792 106.122 540.112C106.122 540.368 106.186 540.544 106.346 540.672C106.506 540.8 106.698 540.88 106.938 540.928C107.162 540.976 107.546 541.024 108.074 541.088C108.778 541.168 109.37 541.28 109.85 541.44C110.33 541.6 110.714 541.84 111.002 542.176C111.29 542.512 111.434 542.96 111.434 543.536C111.434 544.048 111.274 544.512 110.986 544.896C110.682 545.28 110.266 545.584 109.754 545.792C109.226 546 108.634 546.096 107.994 546.096C106.89 546.096 105.994 545.856 105.322 545.36C104.65 544.864 104.298 544.176 104.282 543.296H105.946Z" fill="#515251"/>
<path d="M247.5 538L244 542L240.5 538" stroke="#515251" stroke-width="1.6" stroke-linecap="round" stroke-linejoin="round"/>
</g>
<defs>
<clipPath id="clip0_1_1322">
<rect width="272" height="852" fill="white"/>
</clipPath>
<clipPath id="clip1_1_1322">
<rect width="17.0126" height="19.709" fill="white" transform="translate(20.3779 202.146)"/>
</clipPath>
<clipPath id="clip2_1_1322">
<rect width="20" height="21.3228" fill="white" transform="translate(20.3779 313.339)"/>
</clipPath>
<clipPath id="clip3_1_1322">
<rect width="4.70054" height="4.92138" fill="white" transform="translate(29.3932 317.414)"/>
</clipPath>
</defs>
</svg>
